# MagicaVoxel @ Ephtracy

# group
o 

# material
mtllib 10x5x15.mtl
usemtl palette

# normals
vn -1 0 0
vn 1 0 0
vn 0 0 1
vn 0 0 -1
vn 0 -1 0
vn 0 1 0

# texcoords
vt 0.158203 0.5
vt 0.822266 0.5
vt 0.841797 0.5
vt 0.880859 0.5

# verts
v -0.5 0 0.3
v -0.5 0 0.2
v -0.5 0 -0.1
v -0.5 0 -0.2
v -0.5 0.1 0.3
v -0.5 0.1 0.2
v -0.5 0.1 -0.1
v -0.5 0.1 -0.2
v -0.5 0.4 0.3
v -0.5 0.4 0.2
v -0.5 0.4 -0.1
v -0.5 0.4 -0.2
v -0.5 0.6 0.3
v -0.5 0.6 0.2
v -0.5 0.6 -0.1
v -0.5 0.6 -0.2
v -0.5 0.9 0.3
v -0.5 0.9 0.2
v -0.5 0.9 -0.1
v -0.5 0.9 -0.2
v -0.5 1.1 0.3
v -0.5 1.1 0.2
v -0.5 1.1 -0.1
v -0.5 1.1 -0.2
v -0.5 1.4 0.3
v -0.5 1.4 0.2
v -0.5 1.4 -0.1
v -0.5 1.4 -0.2
v -0.5 1.5 0.3
v -0.5 1.5 0.2
v -0.5 1.5 -0.1
v -0.5 1.5 -0.2
v 0.4 0 0.2
v 0.4 0 -0.1
v 0.4 0.1 0.3
v 0.4 0.1 0.2
v 0.4 0.1 -0.1
v 0.4 0.1 -0.2
v 0.4 0.4 0.3
v 0.4 0.4 0.2
v 0.4 0.4 -0.1
v 0.4 0.4 -0.2
v 0.4 0.6 0.3
v 0.4 0.6 0.2
v 0.4 0.6 -0.1
v 0.4 0.6 -0.2
v 0.4 0.9 0.3
v 0.4 0.9 0.2
v 0.4 0.9 -0.1
v 0.4 0.9 -0.2
v 0.4 1.1 0.3
v 0.4 1.1 0.2
v 0.4 1.1 -0.1
v 0.4 1.1 -0.2
v 0.4 1.4 0.3
v 0.4 1.4 0.2
v 0.4 1.4 -0.1
v 0.4 1.4 -0.2
v 0.4 1.5 0.2
v 0.4 1.5 -0.1
v -0.4 0 0.2
v -0.4 0 -0.1
v -0.4 0.1 0.3
v -0.4 0.1 0.2
v -0.4 0.1 -0.1
v -0.4 0.1 -0.2
v -0.4 0.4 0.3
v -0.4 0.4 0.2
v -0.4 0.4 -0.1
v -0.4 0.4 -0.2
v -0.4 0.6 0.3
v -0.4 0.6 0.2
v -0.4 0.6 -0.1
v -0.4 0.6 -0.2
v -0.4 0.9 0.3
v -0.4 0.9 0.2
v -0.4 0.9 -0.1
v -0.4 0.9 -0.2
v -0.4 1.1 0.3
v -0.4 1.1 0.2
v -0.4 1.1 -0.1
v -0.4 1.1 -0.2
v -0.4 1.4 0.3
v -0.4 1.4 0.2
v -0.4 1.4 -0.1
v -0.4 1.4 -0.2
v -0.4 1.5 0.2
v -0.4 1.5 -0.1
v 0.5 0 0.3
v 0.5 0 0.2
v 0.5 0 -0.1
v 0.5 0 -0.2
v 0.5 0.1 0.3
v 0.5 0.1 0.2
v 0.5 0.1 -0.1
v 0.5 0.1 -0.2
v 0.5 0.4 0.3
v 0.5 0.4 0.2
v 0.5 0.4 -0.1
v 0.5 0.4 -0.2
v 0.5 0.6 0.3
v 0.5 0.6 0.2
v 0.5 0.6 -0.1
v 0.5 0.6 -0.2
v 0.5 0.9 0.3
v 0.5 0.9 0.2
v 0.5 0.9 -0.1
v 0.5 0.9 -0.2
v 0.5 1.1 0.3
v 0.5 1.1 0.2
v 0.5 1.1 -0.1
v 0.5 1.1 -0.2
v 0.5 1.4 0.3
v 0.5 1.4 0.2
v 0.5 1.4 -0.1
v 0.5 1.4 -0.2
v 0.5 1.5 0.3
v 0.5 1.5 0.2
v 0.5 1.5 -0.1
v 0.5 1.5 -0.2
v -0.5 0 0.3
v -0.5 0.1 0.3
v -0.5 0.4 0.3
v -0.5 0.6 0.3
v -0.5 0.9 0.3
v -0.5 1.1 0.3
v -0.5 1.4 0.3
v -0.5 1.5 0.3
v -0.4 0 0.3
v -0.4 0.1 0.3
v -0.4 0.4 0.3
v -0.4 0.6 0.3
v -0.4 0.9 0.3
v -0.4 1.1 0.3
v -0.4 1.4 0.3
v -0.4 1.5 0.3
v -0.1 0 0.3
v -0.1 0.1 0.3
v -0.1 1.4 0.3
v -0.1 1.5 0.3
v 0.1 0 0.3
v 0.1 0.1 0.3
v 0.1 1.4 0.3
v 0.1 1.5 0.3
v 0.4 0 0.3
v 0.4 0.1 0.3
v 0.4 0.4 0.3
v 0.4 0.6 0.3
v 0.4 0.9 0.3
v 0.4 1.1 0.3
v 0.4 1.4 0.3
v 0.4 1.5 0.3
v 0.5 0 0.3
v 0.5 0.1 0.3
v 0.5 0.4 0.3
v 0.5 0.6 0.3
v 0.5 0.9 0.3
v 0.5 1.1 0.3
v 0.5 1.4 0.3
v 0.5 1.5 0.3
v -0.5 0.1 -0.1
v -0.5 0.4 -0.1
v -0.5 0.6 -0.1
v -0.5 0.9 -0.1
v -0.5 1.1 -0.1
v -0.5 1.4 -0.1
v -0.4 0 -0.1
v -0.4 0.1 -0.1
v -0.4 0.4 -0.1
v -0.4 0.6 -0.1
v -0.4 0.9 -0.1
v -0.4 1.1 -0.1
v -0.4 1.4 -0.1
v -0.4 1.5 -0.1
v -0.1 0 -0.1
v -0.1 0.1 -0.1
v -0.1 1.4 -0.1
v -0.1 1.5 -0.1
v 0.1 0 -0.1
v 0.1 0.1 -0.1
v 0.1 1.4 -0.1
v 0.1 1.5 -0.1
v 0.4 0 -0.1
v 0.4 0.1 -0.1
v 0.4 0.4 -0.1
v 0.4 0.6 -0.1
v 0.4 0.9 -0.1
v 0.4 1.1 -0.1
v 0.4 1.4 -0.1
v 0.4 1.5 -0.1
v 0.5 0.1 -0.1
v 0.5 0.4 -0.1
v 0.5 0.6 -0.1
v 0.5 0.9 -0.1
v 0.5 1.1 -0.1
v 0.5 1.4 -0.1
v -0.5 0.1 0.2
v -0.5 0.4 0.2
v -0.5 0.6 0.2
v -0.5 0.9 0.2
v -0.5 1.1 0.2
v -0.5 1.4 0.2
v -0.4 0 0.2
v -0.4 0.1 0.2
v -0.4 0.4 0.2
v -0.4 0.6 0.2
v -0.4 0.9 0.2
v -0.4 1.1 0.2
v -0.4 1.4 0.2
v -0.4 1.5 0.2
v -0.1 0 0.2
v -0.1 0.1 0.2
v -0.1 1.4 0.2
v -0.1 1.5 0.2
v 0.1 0 0.2
v 0.1 0.1 0.2
v 0.1 1.4 0.2
v 0.1 1.5 0.2
v 0.4 0 0.2
v 0.4 0.1 0.2
v 0.4 0.4 0.2
v 0.4 0.6 0.2
v 0.4 0.9 0.2
v 0.4 1.1 0.2
v 0.4 1.4 0.2
v 0.4 1.5 0.2
v 0.5 0.1 0.2
v 0.5 0.4 0.2
v 0.5 0.6 0.2
v 0.5 0.9 0.2
v 0.5 1.1 0.2
v 0.5 1.4 0.2
v -0.5 0 -0.2
v -0.5 0.1 -0.2
v -0.5 0.4 -0.2
v -0.5 0.6 -0.2
v -0.5 0.9 -0.2
v -0.5 1.1 -0.2
v -0.5 1.4 -0.2
v -0.5 1.5 -0.2
v -0.4 0 -0.2
v -0.4 0.1 -0.2
v -0.4 0.4 -0.2
v -0.4 0.6 -0.2
v -0.4 0.9 -0.2
v -0.4 1.1 -0.2
v -0.4 1.4 -0.2
v -0.4 1.5 -0.2
v -0.1 0 -0.2
v -0.1 0.1 -0.2
v -0.1 1.4 -0.2
v -0.1 1.5 -0.2
v 0.1 0 -0.2
v 0.1 0.1 -0.2
v 0.1 1.4 -0.2
v 0.1 1.5 -0.2
v 0.4 0 -0.2
v 0.4 0.1 -0.2
v 0.4 0.4 -0.2
v 0.4 0.6 -0.2
v 0.4 0.9 -0.2
v 0.4 1.1 -0.2
v 0.4 1.4 -0.2
v 0.4 1.5 -0.2
v 0.5 0 -0.2
v 0.5 0.1 -0.2
v 0.5 0.4 -0.2
v 0.5 0.6 -0.2
v 0.5 0.9 -0.2
v 0.5 1.1 -0.2
v 0.5 1.4 -0.2
v 0.5 1.5 -0.2
v -0.5 0 0.3
v -0.4 0 0.3
v -0.1 0 0.3
v 0.1 0 0.3
v 0.4 0 0.3
v 0.5 0 0.3
v -0.5 0 0.2
v -0.4 0 0.2
v -0.1 0 0.2
v 0.1 0 0.2
v 0.4 0 0.2
v 0.5 0 0.2
v -0.5 0 -0.1
v -0.4 0 -0.1
v -0.1 0 -0.1
v 0.1 0 -0.1
v 0.4 0 -0.1
v 0.5 0 -0.1
v -0.5 0 -0.2
v -0.4 0 -0.2
v -0.1 0 -0.2
v 0.1 0 -0.2
v 0.4 0 -0.2
v 0.5 0 -0.2
v -0.4 1.4 0.3
v -0.1 1.4 0.3
v 0.1 1.4 0.3
v 0.4 1.4 0.3
v -0.5 1.4 0.2
v -0.4 1.4 0.2
v -0.1 1.4 0.2
v 0.1 1.4 0.2
v 0.4 1.4 0.2
v 0.5 1.4 0.2
v -0.5 1.4 -0.1
v -0.4 1.4 -0.1
v -0.1 1.4 -0.1
v 0.1 1.4 -0.1
v 0.4 1.4 -0.1
v 0.5 1.4 -0.1
v -0.4 1.4 -0.2
v -0.1 1.4 -0.2
v 0.1 1.4 -0.2
v 0.4 1.4 -0.2
v -0.4 0.1 0.3
v -0.1 0.1 0.3
v 0.1 0.1 0.3
v 0.4 0.1 0.3
v -0.5 0.1 0.2
v -0.4 0.1 0.2
v -0.1 0.1 0.2
v 0.1 0.1 0.2
v 0.4 0.1 0.2
v 0.5 0.1 0.2
v -0.5 0.1 -0.1
v -0.4 0.1 -0.1
v -0.1 0.1 -0.1
v 0.1 0.1 -0.1
v 0.4 0.1 -0.1
v 0.5 0.1 -0.1
v -0.4 0.1 -0.2
v -0.1 0.1 -0.2
v 0.1 0.1 -0.2
v 0.4 0.1 -0.2
v -0.5 1.5 0.3
v -0.4 1.5 0.3
v -0.1 1.5 0.3
v 0.1 1.5 0.3
v 0.4 1.5 0.3
v 0.5 1.5 0.3
v -0.5 1.5 0.2
v -0.4 1.5 0.2
v -0.1 1.5 0.2
v 0.1 1.5 0.2
v 0.4 1.5 0.2
v 0.5 1.5 0.2
v -0.5 1.5 -0.1
v -0.4 1.5 -0.1
v -0.1 1.5 -0.1
v 0.1 1.5 -0.1
v 0.4 1.5 -0.1
v 0.5 1.5 -0.1
v -0.5 1.5 -0.2
v -0.4 1.5 -0.2
v -0.1 1.5 -0.2
v 0.1 1.5 -0.2
v 0.4 1.5 -0.2
v 0.5 1.5 -0.2

# faces
f 5/1/1 2/1/1 1/1/1
f 6/4/1 3/4/1 2/4/1
f 6/1/1 2/1/1 5/1/1
f 7/1/1 4/1/1 3/1/1
f 7/4/1 3/4/1 6/4/1
f 8/1/1 4/1/1 7/1/1
f 9/2/1 6/2/1 5/2/1
f 10/2/1 6/2/1 9/2/1
f 11/2/1 8/2/1 7/2/1
f 12/2/1 8/2/1 11/2/1
f 13/1/1 10/1/1 9/1/1
f 14/1/1 10/1/1 13/1/1
f 15/1/1 12/1/1 11/1/1
f 16/1/1 12/1/1 15/1/1
f 17/2/1 14/2/1 13/2/1
f 18/2/1 14/2/1 17/2/1
f 19/2/1 16/2/1 15/2/1
f 20/2/1 16/2/1 19/2/1
f 21/1/1 18/1/1 17/1/1
f 22/1/1 18/1/1 21/1/1
f 23/1/1 20/1/1 19/1/1
f 24/1/1 20/1/1 23/1/1
f 25/2/1 22/2/1 21/2/1
f 26/2/1 22/2/1 25/2/1
f 27/2/1 24/2/1 23/2/1
f 28/2/1 24/2/1 27/2/1
f 29/1/1 26/1/1 25/1/1
f 30/4/1 27/4/1 26/4/1
f 30/1/1 26/1/1 29/1/1
f 31/1/1 28/1/1 27/1/1
f 31/4/1 27/4/1 30/4/1
f 32/1/1 28/1/1 31/1/1
f 36/4/1 34/4/1 33/4/1
f 37/4/1 34/4/1 36/4/1
f 39/2/1 36/2/1 35/2/1
f 40/2/1 36/2/1 39/2/1
f 41/2/1 38/2/1 37/2/1
f 42/2/1 38/2/1 41/2/1
f 43/1/1 40/1/1 39/1/1
f 44/1/1 40/1/1 43/1/1
f 45/1/1 42/1/1 41/1/1
f 46/1/1 42/1/1 45/1/1
f 47/2/1 44/2/1 43/2/1
f 48/2/1 44/2/1 47/2/1
f 49/2/1 46/2/1 45/2/1
f 50/2/1 46/2/1 49/2/1
f 51/1/1 48/1/1 47/1/1
f 52/1/1 48/1/1 51/1/1
f 53/1/1 50/1/1 49/1/1
f 54/1/1 50/1/1 53/1/1
f 55/2/1 52/2/1 51/2/1
f 56/2/1 52/2/1 55/2/1
f 57/2/1 54/2/1 53/2/1
f 58/2/1 54/2/1 57/2/1
f 59/4/1 57/4/1 56/4/1
f 60/4/1 57/4/1 59/4/1
f 61/4/2 62/4/2 64/4/2
f 64/4/2 62/4/2 65/4/2
f 63/2/2 64/2/2 67/2/2
f 67/2/2 64/2/2 68/2/2
f 65/2/2 66/2/2 69/2/2
f 69/2/2 66/2/2 70/2/2
f 67/1/2 68/1/2 71/1/2
f 71/1/2 68/1/2 72/1/2
f 69/1/2 70/1/2 73/1/2
f 73/1/2 70/1/2 74/1/2
f 71/2/2 72/2/2 75/2/2
f 75/2/2 72/2/2 76/2/2
f 73/2/2 74/2/2 77/2/2
f 77/2/2 74/2/2 78/2/2
f 75/1/2 76/1/2 79/1/2
f 79/1/2 76/1/2 80/1/2
f 77/1/2 78/1/2 81/1/2
f 81/1/2 78/1/2 82/1/2
f 79/2/2 80/2/2 83/2/2
f 83/2/2 80/2/2 84/2/2
f 81/2/2 82/2/2 85/2/2
f 85/2/2 82/2/2 86/2/2
f 84/4/2 85/4/2 87/4/2
f 87/4/2 85/4/2 88/4/2
f 89/1/2 90/1/2 93/1/2
f 90/4/2 91/4/2 94/4/2
f 93/1/2 90/1/2 94/1/2
f 91/1/2 92/1/2 95/1/2
f 94/4/2 91/4/2 95/4/2
f 95/1/2 92/1/2 96/1/2
f 93/2/2 94/2/2 97/2/2
f 97/2/2 94/2/2 98/2/2
f 95/2/2 96/2/2 99/2/2
f 99/2/2 96/2/2 100/2/2
f 97/1/2 98/1/2 101/1/2
f 101/1/2 98/1/2 102/1/2
f 99/1/2 100/1/2 103/1/2
f 103/1/2 100/1/2 104/1/2
f 101/2/2 102/2/2 105/2/2
f 105/2/2 102/2/2 106/2/2
f 103/2/2 104/2/2 107/2/2
f 107/2/2 104/2/2 108/2/2
f 105/1/2 106/1/2 109/1/2
f 109/1/2 106/1/2 110/1/2
f 107/1/2 108/1/2 111/1/2
f 111/1/2 108/1/2 112/1/2
f 109/2/2 110/2/2 113/2/2
f 113/2/2 110/2/2 114/2/2
f 111/2/2 112/2/2 115/2/2
f 115/2/2 112/2/2 116/2/2
f 113/1/2 114/1/2 117/1/2
f 114/4/2 115/4/2 118/4/2
f 117/1/2 114/1/2 118/1/2
f 115/1/2 116/1/2 119/1/2
f 118/4/2 115/4/2 119/4/2
f 119/1/2 116/1/2 120/1/2
f 129/1/3 122/1/3 121/1/3
f 130/2/3 123/2/3 122/2/3
f 130/1/3 122/1/3 129/1/3
f 131/1/3 124/1/3 123/1/3
f 131/2/3 123/2/3 130/2/3
f 132/2/3 125/2/3 124/2/3
f 132/1/3 124/1/3 131/1/3
f 133/1/3 126/1/3 125/1/3
f 133/2/3 125/2/3 132/2/3
f 134/2/3 127/2/3 126/2/3
f 134/1/3 126/1/3 133/1/3
f 135/1/3 128/1/3 127/1/3
f 135/2/3 127/2/3 134/2/3
f 136/1/3 128/1/3 135/1/3
f 137/3/3 130/3/3 129/3/3
f 138/3/3 130/3/3 137/3/3
f 139/3/3 136/3/3 135/3/3
f 140/3/3 136/3/3 139/3/3
f 141/1/3 138/1/3 137/1/3
f 142/1/3 138/1/3 141/1/3
f 143/1/3 140/1/3 139/1/3
f 144/1/3 140/1/3 143/1/3
f 145/3/3 142/3/3 141/3/3
f 146/3/3 142/3/3 145/3/3
f 151/3/3 144/3/3 143/3/3
f 152/3/3 144/3/3 151/3/3
f 153/1/3 146/1/3 145/1/3
f 154/2/3 147/2/3 146/2/3
f 154/1/3 146/1/3 153/1/3
f 155/1/3 148/1/3 147/1/3
f 155/2/3 147/2/3 154/2/3
f 156/2/3 149/2/3 148/2/3
f 156/1/3 148/1/3 155/1/3
f 157/1/3 150/1/3 149/1/3
f 157/2/3 149/2/3 156/2/3
f 158/2/3 151/2/3 150/2/3
f 158/1/3 150/1/3 157/1/3
f 159/1/3 152/1/3 151/1/3
f 159/2/3 151/2/3 158/2/3
f 160/1/3 152/1/3 159/1/3
f 168/2/3 162/2/3 161/2/3
f 169/1/3 163/1/3 162/1/3
f 169/2/3 162/2/3 168/2/3
f 170/2/3 164/2/3 163/2/3
f 170/1/3 163/1/3 169/1/3
f 171/1/3 165/1/3 164/1/3
f 171/2/3 164/2/3 170/2/3
f 172/2/3 166/2/3 165/2/3
f 172/1/3 165/1/3 171/1/3
f 173/2/3 166/2/3 172/2/3
f 175/3/3 168/3/3 167/3/3
f 176/3/3 168/3/3 175/3/3
f 177/3/3 174/3/3 173/3/3
f 178/3/3 174/3/3 177/3/3
f 179/1/3 176/1/3 175/1/3
f 180/1/3 176/1/3 179/1/3
f 181/1/3 178/1/3 177/1/3
f 182/1/3 178/1/3 181/1/3
f 183/3/3 180/3/3 179/3/3
f 184/3/3 180/3/3 183/3/3
f 189/3/3 182/3/3 181/3/3
f 190/3/3 182/3/3 189/3/3
f 191/2/3 185/2/3 184/2/3
f 192/1/3 186/1/3 185/1/3
f 192/2/3 185/2/3 191/2/3
f 193/2/3 187/2/3 186/2/3
f 193/1/3 186/1/3 192/1/3
f 194/1/3 188/1/3 187/1/3
f 194/2/3 187/2/3 193/2/3
f 195/2/3 189/2/3 188/2/3
f 195/1/3 188/1/3 194/1/3
f 196/2/3 189/2/3 195/2/3
f 197/2/4 198/2/4 204/2/4
f 198/1/4 199/1/4 205/1/4
f 204/2/4 198/2/4 205/2/4
f 199/2/4 200/2/4 206/2/4
f 205/1/4 199/1/4 206/1/4
f 200/1/4 201/1/4 207/1/4
f 206/2/4 200/2/4 207/2/4
f 201/2/4 202/2/4 208/2/4
f 207/1/4 201/1/4 208/1/4
f 208/2/4 202/2/4 209/2/4
f 203/3/4 204/3/4 211/3/4
f 211/3/4 204/3/4 212/3/4
f 209/3/4 210/3/4 213/3/4
f 213/3/4 210/3/4 214/3/4
f 211/1/4 212/1/4 215/1/4
f 215/1/4 212/1/4 216/1/4
f 213/1/4 214/1/4 217/1/4
f 217/1/4 214/1/4 218/1/4
f 215/3/4 216/3/4 219/3/4
f 219/3/4 216/3/4 220/3/4
f 217/3/4 218/3/4 225/3/4
f 225/3/4 218/3/4 226/3/4
f 220/2/4 221/2/4 227/2/4
f 221/1/4 222/1/4 228/1/4
f 227/2/4 221/2/4 228/2/4
f 222/2/4 223/2/4 229/2/4
f 228/1/4 222/1/4 229/1/4
f 223/1/4 224/1/4 230/1/4
f 229/2/4 223/2/4 230/2/4
f 224/2/4 225/2/4 231/2/4
f 230/1/4 224/1/4 231/1/4
f 231/2/4 225/2/4 232/2/4
f 233/1/4 234/1/4 241/1/4
f 234/2/4 235/2/4 242/2/4
f 241/1/4 234/1/4 242/1/4
f 235/1/4 236/1/4 243/1/4
f 242/2/4 235/2/4 243/2/4
f 236/2/4 237/2/4 244/2/4
f 243/1/4 236/1/4 244/1/4
f 237/1/4 238/1/4 245/1/4
f 244/2/4 237/2/4 245/2/4
f 238/2/4 239/2/4 246/2/4
f 245/1/4 238/1/4 246/1/4
f 239/1/4 240/1/4 247/1/4
f 246/2/4 239/2/4 247/2/4
f 247/1/4 240/1/4 248/1/4
f 241/3/4 242/3/4 249/3/4
f 249/3/4 242/3/4 250/3/4
f 247/3/4 248/3/4 251/3/4
f 251/3/4 248/3/4 252/3/4
f 249/1/4 250/1/4 253/1/4
f 253/1/4 250/1/4 254/1/4
f 251/1/4 252/1/4 255/1/4
f 255/1/4 252/1/4 256/1/4
f 253/3/4 254/3/4 257/3/4
f 257/3/4 254/3/4 258/3/4
f 255/3/4 256/3/4 263/3/4
f 263/3/4 256/3/4 264/3/4
f 257/1/4 258/1/4 265/1/4
f 258/2/4 259/2/4 266/2/4
f 265/1/4 258/1/4 266/1/4
f 259/1/4 260/1/4 267/1/4
f 266/2/4 259/2/4 267/2/4
f 260/2/4 261/2/4 268/2/4
f 267/1/4 260/1/4 268/1/4
f 261/1/4 262/1/4 269/1/4
f 268/2/4 261/2/4 269/2/4
f 262/2/4 263/2/4 270/2/4
f 269/1/4 262/1/4 270/1/4
f 263/1/4 264/1/4 271/1/4
f 270/2/4 263/2/4 271/2/4
f 271/1/4 264/1/4 272/1/4
f 279/1/5 274/1/5 273/1/5
f 280/3/5 275/3/5 274/3/5
f 280/1/5 274/1/5 279/1/5
f 281/1/5 276/1/5 275/1/5
f 281/3/5 275/3/5 280/3/5
f 282/3/5 277/3/5 276/3/5
f 282/1/5 276/1/5 281/1/5
f 283/1/5 278/1/5 277/1/5
f 283/3/5 277/3/5 282/3/5
f 284/1/5 278/1/5 283/1/5
f 285/4/5 280/4/5 279/4/5
f 286/4/5 280/4/5 285/4/5
f 289/4/5 284/4/5 283/4/5
f 290/4/5 284/4/5 289/4/5
f 291/1/5 286/1/5 285/1/5
f 292/3/5 287/3/5 286/3/5
f 292/1/5 286/1/5 291/1/5
f 293/1/5 288/1/5 287/1/5
f 293/3/5 287/3/5 292/3/5
f 294/3/5 289/3/5 288/3/5
f 294/1/5 288/1/5 293/1/5
f 295/1/5 290/1/5 289/1/5
f 295/3/5 289/3/5 294/3/5
f 296/1/5 290/1/5 295/1/5
f 302/3/5 298/3/5 297/3/5
f 303/1/5 299/1/5 298/1/5
f 303/3/5 298/3/5 302/3/5
f 304/3/5 300/3/5 299/3/5
f 304/1/5 299/1/5 303/1/5
f 305/3/5 300/3/5 304/3/5
f 307/4/5 302/4/5 301/4/5
f 308/4/5 302/4/5 307/4/5
f 311/4/5 306/4/5 305/4/5
f 312/4/5 306/4/5 311/4/5
f 313/3/5 309/3/5 308/3/5
f 314/1/5 310/1/5 309/1/5
f 314/3/5 309/3/5 313/3/5
f 315/3/5 311/3/5 310/3/5
f 315/1/5 310/1/5 314/1/5
f 316/3/5 311/3/5 315/3/5
f 317/3/6 318/3/6 322/3/6
f 318/1/6 319/1/6 323/1/6
f 322/3/6 318/3/6 323/3/6
f 319/3/6 320/3/6 324/3/6
f 323/1/6 319/1/6 324/1/6
f 324/3/6 320/3/6 325/3/6
f 321/4/6 322/4/6 327/4/6
f 327/4/6 322/4/6 328/4/6
f 325/4/6 326/4/6 331/4/6
f 331/4/6 326/4/6 332/4/6
f 328/3/6 329/3/6 333/3/6
f 329/1/6 330/1/6 334/1/6
f 333/3/6 329/3/6 334/3/6
f 330/3/6 331/3/6 335/3/6
f 334/1/6 330/1/6 335/1/6
f 335/3/6 331/3/6 336/3/6
f 337/1/6 338/1/6 343/1/6
f 338/3/6 339/3/6 344/3/6
f 343/1/6 338/1/6 344/1/6
f 339/1/6 340/1/6 345/1/6
f 344/3/6 339/3/6 345/3/6
f 340/3/6 341/3/6 346/3/6
f 345/1/6 340/1/6 346/1/6
f 341/1/6 342/1/6 347/1/6
f 346/3/6 341/3/6 347/3/6
f 347/1/6 342/1/6 348/1/6
f 343/4/6 344/4/6 349/4/6
f 349/4/6 344/4/6 350/4/6
f 347/4/6 348/4/6 353/4/6
f 353/4/6 348/4/6 354/4/6
f 349/1/6 350/1/6 355/1/6
f 350/3/6 351/3/6 356/3/6
f 355/1/6 350/1/6 356/1/6
f 351/1/6 352/1/6 357/1/6
f 356/3/6 351/3/6 357/3/6
f 352/3/6 353/3/6 358/3/6
f 357/1/6 352/1/6 358/1/6
f 353/1/6 354/1/6 359/1/6
f 358/3/6 353/3/6 359/3/6
f 359/1/6 354/1/6 360/1/6
