# MagicaVoxel @ Ephtracy

# group
o 

# material
mtllib laz_table_nolaptop_35_20_25.mtl
usemtl palette

# normals
vn -1 0 0
vn 1 0 0
vn 0 0 1
vn 0 0 -1
vn 0 -1 0
vn 0 1 0

# texcoords
vt 0.0644531 0.5
vt 0.310547 0.5
vt 0.537109 0.5
vt 0.845703 0.5
vt 0.904297 0.5
vt 0.916016 0.5
vt 0.951172 0.5
vt 0.958984 0.5
vt 0.966797 0.5
vt 0.974609 0.5
vt 0.986328 0.5
vt 0.990234 0.5

# verts
v -1.5 0 0
v -1.5 0 -0.2
v -1.5 0 -1.8
v -1.5 0 -2
v -1.5 1.3 0
v -1.5 1.3 -0.2
v -1.5 1.3 -1.8
v -1.5 1.3 -2
v -1.5 1.4 0
v -1.5 1.4 -1.9
v -1.5 1.4 -2
v -1.5 2.5 -1.9
v -1.5 2.5 -2
v -1.4 1.4 -1.2
v -1.4 1.4 -1.3
v -1.4 1.4 -1.5
v -1.4 1.4 -1.7
v -1.4 1.5 -1.2
v -1.4 1.5 -1.3
v -1.4 1.9 -1.5
v -1.4 1.9 -1.7
v -1.3 1.4 -0.1
v -1.3 1.4 -1.1
v -1.3 1.4 -1.4
v -1.3 1.4 -1.5
v -1.3 1.4 -1.7
v -1.3 1.4 -1.8
v -1.3 1.5 -0.1
v -1.3 1.5 -1.1
v -1.3 1.9 -1.4
v -1.3 1.9 -1.5
v -1.3 1.9 -1.6
v -1.3 1.9 -1.7
v -1.3 1.9 -1.8
v -1.3 2.2 -1.5
v -1.3 2.2 -1.6
v -1.2 1.5 -1.6
v -1.2 1.5 -1.7
v -1.2 1.9 -1.7
v -1.2 2.1 -1.6
v -1.2 2.1 -1.7
v 1.7 0 -1.8
v 1.7 0 -2
v 1.7 1.3 -1.8
v 1.7 1.3 -2
v 1.8 0 0
v 1.8 0 -0.2
v 1.8 1.3 0
v 1.8 1.3 -0.2
v -1.3 0 0
v -1.3 0 -0.2
v -1.3 1.3 0
v -1.3 1.3 -0.2
v -1.3 1.5 -1.6
v -1.3 1.5 -1.7
v -1.3 1.9 -1.6
v -1.3 1.9 -1.7
v -1.2 0 -1.8
v -1.2 0 -2
v -1.2 1.3 -1.8
v -1.2 1.3 -2
v -1.2 2 -1.5
v -1.2 2 -1.6
v -1.2 2.1 -1.6
v -1.2 2.2 -1.5
v -1.2 2.2 -1.6
v -1.1 1.4 -1.4
v -1.1 1.4 -1.5
v -1.1 1.4 -1.7
v -1.1 1.4 -1.8
v -1.1 1.9 -1.4
v -1.1 1.9 -1.5
v -1.1 1.9 -1.6
v -1.1 1.9 -1.7
v -1.1 1.9 -1.8
v -1.1 2 -1.5
v -1.1 2 -1.6
v -1.1 2.1 -1.6
v -1.1 2.1 -1.7
v -1 1.4 -1.5
v -1 1.4 -1.7
v -1 1.9 -1.5
v -1 1.9 -1.7
v -0.7 1.4 -0.1
v -0.7 1.4 -1.1
v -0.7 1.5 -0.1
v -0.7 1.5 -1.1
v -0.6 1.4 -1.2
v -0.6 1.4 -1.3
v -0.6 1.5 -1.2
v -0.6 1.5 -1.3
v 2 0 0
v 2 0 -0.2
v 2 0 -1.8
v 2 0 -2
v 2 1.3 0
v 2 1.3 -0.2
v 2 1.3 -1.8
v 2 1.3 -2
v 2 1.4 0
v 2 1.4 -1.9
v 2 1.4 -2
v 2 2.5 -1.9
v 2 2.5 -2
v -1.5 0 0
v -1.5 1.3 0
v -1.5 1.4 0
v -1.3 0 0
v -1.3 1.3 0
v 1.8 0 0
v 1.8 1.3 0
v 2 0 0
v 2 1.3 0
v 2 1.4 0
v -1.3 1.4 -0.1
v -1.3 1.5 -0.1
v -0.7 1.4 -0.1
v -0.7 1.5 -0.1
v -1.4 1.4 -1.2
v -1.4 1.5 -1.2
v -1.3 1.4 -1.2
v -1.3 1.5 -1.2
v -0.7 1.4 -1.2
v -0.7 1.5 -1.2
v -0.6 1.4 -1.2
v -0.6 1.5 -1.2
v -1.3 1.4 -1.4
v -1.3 1.9 -1.4
v -1.1 1.4 -1.4
v -1.1 1.9 -1.4
v -1.4 1.4 -1.5
v -1.4 1.9 -1.5
v -1.3 1.4 -1.5
v -1.3 1.9 -1.5
v -1.3 2.2 -1.5
v -1.2 1.9 -1.5
v -1.2 2 -1.5
v -1.2 2.2 -1.5
v -1.1 1.4 -1.5
v -1.1 1.9 -1.5
v -1.1 2 -1.5
v -1 1.4 -1.5
v -1 1.9 -1.5
v -1.2 2 -1.6
v -1.2 2.1 -1.6
v -1.1 2 -1.6
v -1.1 2.1 -1.6
v -1.3 1.5 -1.7
v -1.3 1.9 -1.7
v -1.2 1.5 -1.7
v -1.2 1.9 -1.7
v -1.5 0 -1.8
v -1.5 1.3 -1.8
v -1.2 0 -1.8
v -1.2 1.3 -1.8
v 1.7 0 -1.8
v 1.7 1.3 -1.8
v 2 0 -1.8
v 2 1.3 -1.8
v -1.5 1.4 -1.9
v -1.5 2.5 -1.9
v 2 1.4 -1.9
v 2 2.5 -1.9
v -1.5 0 -0.2
v -1.5 1.3 -0.2
v -1.3 0 -0.2
v -1.3 1.3 -0.2
v 1.8 0 -0.2
v 1.8 1.3 -0.2
v 2 0 -0.2
v 2 1.3 -0.2
v -1.3 1.4 -1.1
v -1.3 1.5 -1.1
v -0.7 1.4 -1.1
v -0.7 1.5 -1.1
v -1.4 1.4 -1.3
v -1.4 1.5 -1.3
v -1.3 1.4 -1.3
v -1.3 1.5 -1.3
v -0.7 1.4 -1.3
v -0.7 1.5 -1.3
v -0.6 1.4 -1.3
v -0.6 1.5 -1.3
v -1.3 1.5 -1.6
v -1.3 1.9 -1.6
v -1.3 2.2 -1.6
v -1.2 1.5 -1.6
v -1.2 2.1 -1.6
v -1.2 2.2 -1.6
v -1.4 1.4 -1.7
v -1.4 1.9 -1.7
v -1.3 1.4 -1.7
v -1.3 1.9 -1.7
v -1.2 1.9 -1.7
v -1.2 2.1 -1.7
v -1.1 1.4 -1.7
v -1.1 1.9 -1.7
v -1.1 2.1 -1.7
v -1 1.4 -1.7
v -1 1.9 -1.7
v -1.3 1.4 -1.8
v -1.3 1.9 -1.8
v -1.1 1.4 -1.8
v -1.1 1.9 -1.8
v -1.5 0 -2
v -1.5 1.3 -2
v -1.5 1.4 -2
v -1.5 2.5 -2
v -1.2 0 -2
v -1.2 1.3 -2
v 1.7 0 -2
v 1.7 1.3 -2
v 2 0 -2
v 2 1.3 -2
v 2 1.4 -2
v 2 2.5 -2
v -1.5 0 0
v -1.3 0 0
v 1.8 0 0
v 2 0 0
v -1.5 0 -0.2
v -1.3 0 -0.2
v 1.8 0 -0.2
v 2 0 -0.2
v -1.5 0 -1.8
v -1.2 0 -1.8
v 1.7 0 -1.8
v 2 0 -1.8
v -1.5 0 -2
v -1.2 0 -2
v 1.7 0 -2
v 2 0 -2
v -1.3 1.3 0
v 1.8 1.3 0
v -1.5 1.3 -0.2
v -1.3 1.3 -0.2
v 1.8 1.3 -0.2
v 2 1.3 -0.2
v -1.5 1.3 -1.8
v -1.2 1.3 -1.8
v 1.7 1.3 -1.8
v 2 1.3 -1.8
v -1.2 1.3 -2
v 1.7 1.3 -2
v -1.5 1.4 0
v 2 1.4 0
v -1.3 1.4 -0.1
v -0.7 1.4 -0.1
v -1.3 1.4 -1.1
v -0.7 1.4 -1.1
v -1.4 1.4 -1.2
v -1.3 1.4 -1.2
v -0.7 1.4 -1.2
v -0.6 1.4 -1.2
v -1.4 1.4 -1.3
v -1.3 1.4 -1.3
v -0.7 1.4 -1.3
v -0.6 1.4 -1.3
v -1.3 1.4 -1.4
v -1.1 1.4 -1.4
v -1.4 1.4 -1.5
v -1.3 1.4 -1.5
v -1.1 1.4 -1.5
v -1 1.4 -1.5
v -1.4 1.4 -1.7
v -1.3 1.4 -1.7
v -1.1 1.4 -1.7
v -1 1.4 -1.7
v -1.3 1.4 -1.8
v -1.1 1.4 -1.8
v -1.5 1.4 -1.9
v 2 1.4 -1.9
v -1.3 1.5 -0.1
v -0.7 1.5 -0.1
v -1.2 1.5 -0.2
v -0.8 1.5 -0.2
v -1.1 1.5 -0.4
v -0.9 1.5 -0.4
v -1.1 1.5 -0.5
v -0.9 1.5 -0.5
v -1.1 1.5 -0.6
v -0.9 1.5 -0.6
v -1.1 1.5 -0.7
v -0.9 1.5 -0.7
v -1.1 1.5 -0.8
v -0.9 1.5 -0.8
v -1.1 1.5 -0.9
v -0.9 1.5 -0.9
v -1.2 1.5 -1
v -0.8 1.5 -1
v -1.3 1.5 -1.1
v -0.7 1.5 -1.1
v -1.4 1.5 -1.2
v -1.3 1.5 -1.2
v -0.7 1.5 -1.2
v -0.6 1.5 -1.2
v -1.4 1.5 -1.3
v -1.3 1.5 -1.3
v -0.7 1.5 -1.3
v -0.6 1.5 -1.3
v -1.3 1.5 -1.6
v -1.2 1.5 -1.6
v -1.3 1.5 -1.7
v -1.2 1.5 -1.7
v -1.3 1.9 -1.4
v -1.1 1.9 -1.4
v -1.4 1.9 -1.5
v -1.3 1.9 -1.5
v -1.2 1.9 -1.5
v -1.1 1.9 -1.5
v -1 1.9 -1.5
v -1.3 1.9 -1.6
v -1.1 1.9 -1.6
v -1.4 1.9 -1.7
v -1.3 1.9 -1.7
v -1.2 1.9 -1.7
v -1.1 1.9 -1.7
v -1 1.9 -1.7
v -1.3 1.9 -1.8
v -1.1 1.9 -1.8
v -1.2 2 -1.5
v -1.1 2 -1.5
v -1.2 2 -1.6
v -1.1 2 -1.6
v -1.2 2.1 -1.6
v -1.1 2.1 -1.6
v -1.2 2.1 -1.7
v -1.1 2.1 -1.7
v -1.3 2.2 -1.5
v -1.2 2.2 -1.5
v -1.3 2.2 -1.6
v -1.2 2.2 -1.6
v -1.5 2.5 -1.9
v 2 2.5 -1.9
v -1.5 2.5 -2
v 2 2.5 -2

# faces
f 5/10/1 2/10/1 1/10/1
f 6/10/1 2/10/1 5/10/1
f 7/10/1 4/10/1 3/10/1
f 8/10/1 4/10/1 7/10/1
f 9/3/1 6/3/1 5/3/1
f 9/3/1 7/3/1 6/3/1
f 9/3/1 8/3/1 7/3/1
f 10/3/1 8/3/1 9/3/1
f 11/3/1 8/3/1 10/3/1
f 12/6/1 11/6/1 10/6/1
f 13/6/1 11/6/1 12/6/1
f 18/8/1 15/8/1 14/8/1
f 19/8/1 15/8/1 18/8/1
f 20/11/1 17/11/1 16/11/1
f 21/11/1 17/11/1 20/11/1
f 28/7/1 23/7/1 22/7/1
f 29/7/1 23/7/1 28/7/1
f 30/11/1 25/11/1 24/11/1
f 31/11/1 25/11/1 30/11/1
f 33/11/1 27/11/1 26/11/1
f 34/11/1 27/11/1 33/11/1
f 35/5/1 32/5/1 31/5/1
f 36/5/1 32/5/1 35/5/1
f 39/4/1 38/4/1 37/4/1
f 40/4/1 39/4/1 37/4/1
f 41/4/1 39/4/1 40/4/1
f 44/10/1 43/10/1 42/10/1
f 45/10/1 43/10/1 44/10/1
f 48/10/1 47/10/1 46/10/1
f 49/10/1 47/10/1 48/10/1
f 50/10/2 51/10/2 52/10/2
f 52/10/2 51/10/2 53/10/2
f 54/11/2 55/11/2 56/11/2
f 56/11/2 55/11/2 57/11/2
f 58/10/2 59/10/2 60/10/2
f 60/10/2 59/10/2 61/10/2
f 62/5/2 63/5/2 64/5/2
f 62/5/2 64/5/2 65/5/2
f 65/5/2 64/5/2 66/5/2
f 67/11/2 68/11/2 71/11/2
f 71/11/2 68/11/2 72/11/2
f 69/11/2 70/11/2 74/11/2
f 74/11/2 70/11/2 75/11/2
f 72/2/2 73/2/2 76/2/2
f 73/4/2 74/4/2 77/4/2
f 76/2/2 73/2/2 77/2/2
f 77/4/2 74/4/2 78/4/2
f 78/4/2 74/4/2 79/4/2
f 80/11/2 81/11/2 82/11/2
f 82/11/2 81/11/2 83/11/2
f 84/7/2 85/7/2 86/7/2
f 86/7/2 85/7/2 87/7/2
f 88/11/2 89/11/2 90/11/2
f 90/11/2 89/11/2 91/11/2
f 92/10/2 93/10/2 96/10/2
f 96/10/2 93/10/2 97/10/2
f 94/10/2 95/10/2 98/10/2
f 98/10/2 95/10/2 99/10/2
f 96/3/2 97/3/2 100/3/2
f 97/3/2 98/3/2 100/3/2
f 98/3/2 99/3/2 100/3/2
f 100/3/2 99/3/2 101/3/2
f 101/3/2 99/3/2 102/3/2
f 101/6/2 102/6/2 103/6/2
f 103/6/2 102/6/2 104/6/2
f 108/10/3 106/10/3 105/10/3
f 109/3/3 107/3/3 106/3/3
f 109/10/3 106/10/3 108/10/3
f 111/3/3 107/3/3 109/3/3
f 112/10/3 111/10/3 110/10/3
f 113/3/3 107/3/3 111/3/3
f 113/10/3 111/10/3 112/10/3
f 114/3/3 107/3/3 113/3/3
f 117/7/3 116/7/3 115/7/3
f 118/7/3 116/7/3 117/7/3
f 121/8/3 120/8/3 119/8/3
f 122/8/3 120/8/3 121/8/3
f 123/1/3 122/1/3 121/1/3
f 124/1/3 122/1/3 123/1/3
f 125/11/3 124/11/3 123/11/3
f 126/11/3 124/11/3 125/11/3
f 129/11/3 128/11/3 127/11/3
f 130/11/3 128/11/3 129/11/3
f 133/11/3 132/11/3 131/11/3
f 134/11/3 132/11/3 133/11/3
f 136/5/3 135/5/3 134/5/3
f 137/5/3 135/5/3 136/5/3
f 138/5/3 135/5/3 137/5/3
f 140/2/3 137/2/3 136/2/3
f 141/2/3 137/2/3 140/2/3
f 142/11/3 140/11/3 139/11/3
f 143/11/3 140/11/3 142/11/3
f 146/4/3 145/4/3 144/4/3
f 147/4/3 145/4/3 146/4/3
f 150/11/3 149/11/3 148/11/3
f 151/11/3 149/11/3 150/11/3
f 154/10/3 153/10/3 152/10/3
f 155/10/3 153/10/3 154/10/3
f 158/10/3 157/10/3 156/10/3
f 159/10/3 157/10/3 158/10/3
f 162/6/3 161/6/3 160/6/3
f 163/6/3 161/6/3 162/6/3
f 164/10/4 165/10/4 166/10/4
f 166/10/4 165/10/4 167/10/4
f 168/10/4 169/10/4 170/10/4
f 170/10/4 169/10/4 171/10/4
f 172/7/4 173/7/4 174/7/4
f 174/7/4 173/7/4 175/7/4
f 176/8/4 177/8/4 178/8/4
f 178/8/4 177/8/4 179/8/4
f 178/1/4 179/1/4 180/1/4
f 180/1/4 179/1/4 181/1/4
f 180/11/4 181/11/4 182/11/4
f 182/11/4 181/11/4 183/11/4
f 184/5/4 185/5/4 187/5/4
f 185/5/4 186/5/4 187/5/4
f 187/5/4 186/5/4 188/5/4
f 188/5/4 186/5/4 189/5/4
f 190/11/4 191/11/4 192/11/4
f 192/11/4 191/11/4 193/11/4
f 194/4/4 195/4/4 197/4/4
f 197/4/4 195/4/4 198/4/4
f 196/11/4 197/11/4 199/11/4
f 199/11/4 197/11/4 200/11/4
f 201/11/4 202/11/4 203/11/4
f 203/11/4 202/11/4 204/11/4
f 205/10/4 206/10/4 209/10/4
f 206/3/4 207/3/4 210/3/4
f 209/10/4 206/10/4 210/10/4
f 210/3/4 207/3/4 212/3/4
f 211/10/4 212/10/4 213/10/4
f 212/3/4 207/3/4 214/3/4
f 213/10/4 212/10/4 214/10/4
f 207/6/4 208/6/4 215/6/4
f 214/3/4 207/3/4 215/3/4
f 215/6/4 208/6/4 216/6/4
f 221/10/5 218/10/5 217/10/5
f 222/10/5 218/10/5 221/10/5
f 223/10/5 220/10/5 219/10/5
f 224/10/5 220/10/5 223/10/5
f 229/10/5 226/10/5 225/10/5
f 230/10/5 226/10/5 229/10/5
f 231/10/5 228/10/5 227/10/5
f 232/10/5 228/10/5 231/10/5
f 236/3/5 234/3/5 233/3/5
f 237/3/5 234/3/5 236/3/5
f 239/3/5 236/3/5 235/3/5
f 239/3/5 238/3/5 237/3/5
f 239/3/5 237/3/5 236/3/5
f 240/3/5 238/3/5 239/3/5
f 241/3/5 238/3/5 240/3/5
f 242/3/5 238/3/5 241/3/5
f 243/3/5 241/3/5 240/3/5
f 244/3/5 241/3/5 243/3/5
f 245/3/6 246/3/6 247/3/6
f 247/3/6 246/3/6 248/3/6
f 245/3/6 247/3/6 249/3/6
f 248/3/6 246/3/6 250/3/6
f 245/3/6 249/3/6 251/3/6
f 249/3/6 250/3/6 251/3/6
f 251/3/6 250/3/6 252/3/6
f 250/3/6 246/3/6 253/3/6
f 252/3/6 250/3/6 253/3/6
f 253/3/6 246/3/6 254/3/6
f 245/3/6 251/3/6 255/3/6
f 254/3/6 246/3/6 258/3/6
f 256/3/6 257/3/6 259/3/6
f 257/3/6 258/3/6 259/3/6
f 255/3/6 256/3/6 259/3/6
f 259/3/6 258/3/6 260/3/6
f 245/3/6 255/3/6 261/3/6
f 255/3/6 259/3/6 261/3/6
f 261/3/6 259/3/6 262/3/6
f 260/3/6 258/3/6 263/3/6
f 263/3/6 258/3/6 264/3/6
f 245/3/6 261/3/6 265/3/6
f 264/3/6 258/3/6 268/3/6
f 265/3/6 266/3/6 269/3/6
f 267/3/6 268/3/6 270/3/6
f 265/3/6 269/3/6 271/3/6
f 269/3/6 270/3/6 271/3/6
f 245/3/6 265/3/6 271/3/6
f 258/3/6 246/3/6 272/3/6
f 271/3/6 270/3/6 272/3/6
f 270/3/6 268/3/6 272/3/6
f 268/3/6 258/3/6 272/3/6
f 273/7/6 274/7/6 275/7/6
f 275/7/6 274/7/6 276/7/6
f 275/9/6 276/9/6 277/9/6
f 277/9/6 276/9/6 278/9/6
f 275/9/6 277/9/6 279/9/6
f 277/12/6 278/12/6 279/12/6
f 278/9/6 276/9/6 280/9/6
f 279/12/6 278/12/6 280/12/6
f 275/9/6 279/9/6 281/9/6
f 279/9/6 280/9/6 281/9/6
f 280/9/6 276/9/6 282/9/6
f 281/9/6 280/9/6 282/9/6
f 275/9/6 281/9/6 283/9/6
f 281/12/6 282/12/6 283/12/6
f 282/9/6 276/9/6 284/9/6
f 283/12/6 282/12/6 284/12/6
f 275/9/6 283/9/6 285/9/6
f 283/9/6 284/9/6 285/9/6
f 284/9/6 276/9/6 286/9/6
f 285/9/6 284/9/6 286/9/6
f 275/9/6 285/9/6 287/9/6
f 285/12/6 286/12/6 287/12/6
f 286/9/6 276/9/6 288/9/6
f 287/12/6 286/12/6 288/12/6
f 273/7/6 275/7/6 289/7/6
f 275/9/6 287/9/6 289/9/6
f 287/9/6 288/9/6 289/9/6
f 288/9/6 276/9/6 290/9/6
f 289/9/6 288/9/6 290/9/6
f 276/7/6 274/7/6 290/7/6
f 273/7/6 289/7/6 291/7/6
f 289/7/6 290/7/6 291/7/6
f 290/7/6 274/7/6 292/7/6
f 291/7/6 290/7/6 292/7/6
f 293/8/6 294/8/6 297/8/6
f 294/1/6 295/1/6 298/1/6
f 297/8/6 294/8/6 298/8/6
f 295/11/6 296/11/6 299/11/6
f 298/1/6 295/1/6 299/1/6
f 299/11/6 296/11/6 300/11/6
f 301/11/6 302/11/6 303/11/6
f 303/11/6 302/11/6 304/11/6
f 305/11/6 306/11/6 308/11/6
f 308/11/6 306/11/6 309/11/6
f 309/11/6 306/11/6 310/11/6
f 307/11/6 308/11/6 312/11/6
f 310/11/6 311/11/6 313/11/6
f 307/11/6 312/11/6 314/11/6
f 314/11/6 312/11/6 315/11/6
f 313/11/6 311/11/6 317/11/6
f 317/11/6 311/11/6 318/11/6
f 315/11/6 316/11/6 319/11/6
f 316/11/6 317/11/6 319/11/6
f 319/11/6 317/11/6 320/11/6
f 321/2/6 322/2/6 323/2/6
f 323/2/6 322/2/6 324/2/6
f 325/4/6 326/4/6 327/4/6
f 327/4/6 326/4/6 328/4/6
f 329/5/6 330/5/6 331/5/6
f 331/5/6 330/5/6 332/5/6
f 333/6/6 334/6/6 335/6/6
f 335/6/6 334/6/6 336/6/6
