# MagicaVoxel @ Ephtracy

# group
o 

# material
mtllib lazwall_5_5_40.mtl
usemtl palette

# normals
vn -1 0 0
vn 1 0 0
vn 0 0 1
vn 0 0 -1
vn 0 -1 0
vn 0 1 0

# texcoords
vt 0.970703 0.5
vt 0.978516 0.5
vt 0.982422 0.5

# verts
v -2 0 0.3
v -2 0 -0.2
v -2 0.3 0.3
v -2 0.3 -0.2
v -1.9 0.3 0.3
v -1.9 0.3 -0.2
v -1.9 0.4 0.3
v -1.9 0.4 -0.2
v -1.9 3.8 0.3
v -1.9 3.8 -0.2
v -1.9 4 0.3
v -1.9 4 -0.2
v -1.6 0.3 0.3
v -1.6 0.3 -0.2
v -1.6 0.4 0.3
v -1.6 0.4 -0.2
v -1.6 3.8 0.3
v -1.6 3.8 -0.2
v -1.6 4 0.3
v -1.6 4 -0.2
v -1.5 0 0.3
v -1.5 0 -0.2
v -1.5 0.3 0.3
v -1.5 0.3 -0.2
v -2 0 0.3
v -2 0.3 0.3
v -1.9 0.3 0.3
v -1.9 0.4 0.3
v -1.9 3.8 0.3
v -1.9 4 0.3
v -1.6 0.3 0.3
v -1.6 0.4 0.3
v -1.6 3.8 0.3
v -1.6 4 0.3
v -1.5 0 0.3
v -1.5 0.3 0.3
v -2 0 -0.2
v -2 0.3 -0.2
v -1.9 0.3 -0.2
v -1.9 0.4 -0.2
v -1.9 3.8 -0.2
v -1.9 4 -0.2
v -1.6 0.3 -0.2
v -1.6 0.4 -0.2
v -1.6 3.8 -0.2
v -1.6 4 -0.2
v -1.5 0 -0.2
v -1.5 0.3 -0.2
v -2 0 0.3
v -1.5 0 0.3
v -2 0 -0.2
v -1.5 0 -0.2
v -2 0.3 0.3
v -1.9 0.3 0.3
v -1.6 0.3 0.3
v -1.5 0.3 0.3
v -2 0.3 -0.2
v -1.9 0.3 -0.2
v -1.6 0.3 -0.2
v -1.5 0.3 -0.2
v -1.9 4 0.3
v -1.6 4 0.3
v -1.9 4 -0.2
v -1.6 4 -0.2

# faces
f 3/3/1 2/3/1 1/3/1
f 4/3/1 2/3/1 3/3/1
f 7/3/1 6/3/1 5/3/1
f 8/3/1 6/3/1 7/3/1
f 9/1/1 8/1/1 7/1/1
f 10/1/1 8/1/1 9/1/1
f 11/2/1 10/2/1 9/2/1
f 12/2/1 10/2/1 11/2/1
f 13/3/2 14/3/2 15/3/2
f 15/3/2 14/3/2 16/3/2
f 15/1/2 16/1/2 17/1/2
f 17/1/2 16/1/2 18/1/2
f 17/2/2 18/2/2 19/2/2
f 19/2/2 18/2/2 20/2/2
f 21/3/2 22/3/2 23/3/2
f 23/3/2 22/3/2 24/3/2
f 27/3/3 26/3/3 25/3/3
f 31/3/3 27/3/3 25/3/3
f 31/3/3 28/3/3 27/3/3
f 32/1/3 29/1/3 28/1/3
f 32/3/3 28/3/3 31/3/3
f 33/2/3 30/2/3 29/2/3
f 33/1/3 29/1/3 32/1/3
f 34/2/3 30/2/3 33/2/3
f 35/3/3 31/3/3 25/3/3
f 36/3/3 31/3/3 35/3/3
f 37/3/4 38/3/4 39/3/4
f 37/3/4 39/3/4 43/3/4
f 39/3/4 40/3/4 43/3/4
f 40/1/4 41/1/4 44/1/4
f 43/3/4 40/3/4 44/3/4
f 41/2/4 42/2/4 45/2/4
f 44/1/4 41/1/4 45/1/4
f 45/2/4 42/2/4 46/2/4
f 37/3/4 43/3/4 47/3/4
f 47/3/4 43/3/4 48/3/4
f 51/3/5 50/3/5 49/3/5
f 52/3/5 50/3/5 51/3/5
f 53/3/6 54/3/6 57/3/6
f 57/3/6 54/3/6 58/3/6
f 55/3/6 56/3/6 59/3/6
f 59/3/6 56/3/6 60/3/6
f 61/2/6 62/2/6 63/2/6
f 63/2/6 62/2/6 64/2/6
