# MagicaVoxel @ Ephtracy

# group
o 

# material
mtllib lazwall_nowindow.mtl
usemtl palette

# normals
vn -1 0 0
vn 1 0 0
vn 0 0 1
vn 0 0 -1
vn 0 -1 0
vn 0 1 0

# texcoords
vt 0.958984 0.5
vt 0.978516 0.5
vt 0.982422 0.5

# verts
v -2 0 2
v -2 0 -2
v -2 0.4 2
v -2 0.4 -2
v -2 1.7 2
v -2 1.7 -2
v -2 4 2
v -2 4 -2
v -1.8 3.7 0.8
v -1.8 3.7 -0.9
v -1.8 3.8 0.8
v -1.8 3.8 -0.9
v -1.9 3.7 0.8
v -1.9 3.7 -0.9
v -1.9 3.8 0.8
v -1.9 3.8 -0.9
v -1.7 0.4 2
v -1.7 0.4 -2
v -1.7 1.7 2
v -1.7 1.7 -2
v -1.7 4 2
v -1.7 4 -2
v -1.6 0.3 2
v -1.6 0.3 -2
v -1.6 0.4 2
v -1.6 0.4 -2
v -1.5 0 2
v -1.5 0 -2
v -1.5 0.3 2
v -1.5 0.3 -2
v -2 0 2
v -2 0.4 2
v -2 1.7 2
v -2 4 2
v -1.7 0.4 2
v -1.7 1.7 2
v -1.7 4 2
v -1.6 0.3 2
v -1.6 0.4 2
v -1.5 0 2
v -1.5 0.3 2
v -1.9 3.7 -0.9
v -1.9 3.8 -0.9
v -1.8 3.7 -0.9
v -1.8 3.8 -0.9
v -1.9 3.7 0.8
v -1.9 3.8 0.8
v -1.8 3.7 0.8
v -1.8 3.8 0.8
v -2 0 -2
v -2 0.4 -2
v -2 1.7 -2
v -2 4 -2
v -1.7 0.4 -2
v -1.7 1.7 -2
v -1.7 4 -2
v -1.6 0.3 -2
v -1.6 0.4 -2
v -1.5 0 -2
v -1.5 0.3 -2
v -2 0 2
v -1.5 0 2
v -2 0 -2
v -1.5 0 -2
v -1.9 3.8 0.8
v -1.8 3.8 0.8
v -1.9 3.8 -0.9
v -1.8 3.8 -0.9
v -1.6 0.3 2
v -1.5 0.3 2
v -1.6 0.3 -2
v -1.5 0.3 -2
v -1.7 0.4 2
v -1.6 0.4 2
v -1.7 0.4 -2
v -1.6 0.4 -2
v -1.9 3.7 0.8
v -1.8 3.7 0.8
v -1.9 3.7 -0.9
v -1.8 3.7 -0.9
v -2 4 2
v -1.7 4 2
v -2 4 -2
v -1.7 4 -2

# faces
f 3/3/1 2/3/1 1/3/1
f 4/3/1 2/3/1 3/3/1
f 5/1/1 4/1/1 3/1/1
f 6/1/1 4/1/1 5/1/1
f 7/2/1 6/2/1 5/2/1
f 8/2/1 6/2/1 7/2/1
f 11/2/1 10/2/1 9/2/1
f 12/2/1 10/2/1 11/2/1
f 13/2/2 14/2/2 15/2/2
f 15/2/2 14/2/2 16/2/2
f 17/1/2 18/1/2 19/1/2
f 19/1/2 18/1/2 20/1/2
f 19/2/2 20/2/2 21/2/2
f 21/2/2 20/2/2 22/2/2
f 23/3/2 24/3/2 25/3/2
f 25/3/2 24/3/2 26/3/2
f 27/3/2 28/3/2 29/3/2
f 29/3/2 28/3/2 30/3/2
f 35/3/3 32/3/3 31/3/3
f 35/1/3 33/1/3 32/1/3
f 36/2/3 34/2/3 33/2/3
f 36/1/3 33/1/3 35/1/3
f 37/2/3 34/2/3 36/2/3
f 38/3/3 35/3/3 31/3/3
f 39/3/3 35/3/3 38/3/3
f 40/3/3 38/3/3 31/3/3
f 41/3/3 38/3/3 40/3/3
f 44/2/3 43/2/3 42/2/3
f 45/2/3 43/2/3 44/2/3
f 46/2/4 47/2/4 48/2/4
f 48/2/4 47/2/4 49/2/4
f 50/3/4 51/3/4 54/3/4
f 51/1/4 52/1/4 54/1/4
f 52/2/4 53/2/4 55/2/4
f 54/1/4 52/1/4 55/1/4
f 55/2/4 53/2/4 56/2/4
f 50/3/4 54/3/4 57/3/4
f 57/3/4 54/3/4 58/3/4
f 50/3/4 57/3/4 59/3/4
f 59/3/4 57/3/4 60/3/4
f 63/3/5 62/3/5 61/3/5
f 64/3/5 62/3/5 63/3/5
f 67/2/5 66/2/5 65/2/5
f 68/2/5 66/2/5 67/2/5
f 69/3/6 70/3/6 71/3/6
f 71/3/6 70/3/6 72/3/6
f 73/3/6 74/3/6 75/3/6
f 75/3/6 74/3/6 76/3/6
f 77/2/6 78/2/6 79/2/6
f 79/2/6 78/2/6 80/2/6
f 81/2/6 82/2/6 83/2/6
f 83/2/6 82/2/6 84/2/6
