# MagicaVoxel @ Ephtracy

# group
o 

# material
mtllib lazwall_corner_5_5_40.mtl
usemtl palette

# normals
vn -1 0 0
vn 1 0 0
vn 0 0 1
vn 0 0 -1
vn 0 -1 0
vn 0 1 0

# texcoords
vt 0.970703 0.5
vt 0.978516 0.5
vt 0.982422 0.5

# verts
v -2 0 -1.5
v -2 0 -2
v -2 0.3 -1.5
v -2 0.3 -1.6
v -2 0.3 -1.9
v -2 0.3 -2
v -2 0.4 -1.6
v -2 0.4 -1.9
v -2 3.8 -1.6
v -2 3.8 -1.9
v -2 4 -1.6
v -2 4 -1.9
v -1.9 0.3 -1.5
v -1.9 0.3 -1.6
v -1.9 0.3 -1.9
v -1.9 0.3 -2
v -1.9 0.4 -1.5
v -1.9 0.4 -1.6
v -1.9 0.4 -1.9
v -1.9 0.4 -2
v -1.9 3.8 -1.5
v -1.9 3.8 -1.6
v -1.9 3.8 -1.9
v -1.9 3.8 -2
v -1.9 4 -1.5
v -1.9 4 -1.6
v -1.9 4 -1.9
v -1.9 4 -2
v -1.6 0.3 -1.5
v -1.6 0.3 -1.6
v -1.6 0.3 -1.9
v -1.6 0.3 -2
v -1.6 0.4 -1.5
v -1.6 0.4 -1.6
v -1.6 0.4 -1.9
v -1.6 0.4 -2
v -1.6 3.8 -1.5
v -1.6 3.8 -1.6
v -1.6 3.8 -1.9
v -1.6 3.8 -2
v -1.6 4 -1.5
v -1.6 4 -1.6
v -1.6 4 -1.9
v -1.6 4 -2
v -1.5 0 -1.5
v -1.5 0 -2
v -1.5 0.3 -1.5
v -1.5 0.3 -1.6
v -1.5 0.3 -1.9
v -1.5 0.3 -2
v -1.5 0.4 -1.6
v -1.5 0.4 -1.9
v -1.5 3.8 -1.6
v -1.5 3.8 -1.9
v -1.5 4 -1.6
v -1.5 4 -1.9
v -2 0 -1.5
v -2 0.3 -1.5
v -1.9 0.3 -1.5
v -1.9 0.4 -1.5
v -1.9 3.8 -1.5
v -1.9 4 -1.5
v -1.6 0.3 -1.5
v -1.6 0.4 -1.5
v -1.6 3.8 -1.5
v -1.6 4 -1.5
v -1.5 0 -1.5
v -1.5 0.3 -1.5
v -2 0.3 -1.6
v -2 0.4 -1.6
v -2 3.8 -1.6
v -2 4 -1.6
v -1.9 0.3 -1.6
v -1.9 0.4 -1.6
v -1.9 3.8 -1.6
v -1.9 4 -1.6
v -1.6 0.3 -1.6
v -1.6 0.4 -1.6
v -1.6 3.8 -1.6
v -1.6 4 -1.6
v -1.5 0.3 -1.6
v -1.5 0.4 -1.6
v -1.5 3.8 -1.6
v -1.5 4 -1.6
v -2 0.3 -1.9
v -2 0.4 -1.9
v -2 3.8 -1.9
v -2 4 -1.9
v -1.9 0.3 -1.9
v -1.9 0.4 -1.9
v -1.9 3.8 -1.9
v -1.9 4 -1.9
v -1.6 0.3 -1.9
v -1.6 0.4 -1.9
v -1.6 3.8 -1.9
v -1.6 4 -1.9
v -1.5 0.3 -1.9
v -1.5 0.4 -1.9
v -1.5 3.8 -1.9
v -1.5 4 -1.9
v -2 0 -2
v -2 0.3 -2
v -1.9 0.3 -2
v -1.9 0.4 -2
v -1.9 3.8 -2
v -1.9 4 -2
v -1.6 0.3 -2
v -1.6 0.4 -2
v -1.6 3.8 -2
v -1.6 4 -2
v -1.5 0 -2
v -1.5 0.3 -2
v -2 0 -1.5
v -1.5 0 -1.5
v -2 0 -2
v -1.5 0 -2
v -2 0.3 -1.5
v -1.9 0.3 -1.5
v -1.6 0.3 -1.5
v -1.5 0.3 -1.5
v -2 0.3 -1.6
v -1.9 0.3 -1.6
v -1.6 0.3 -1.6
v -1.5 0.3 -1.6
v -2 0.3 -1.9
v -1.9 0.3 -1.9
v -1.6 0.3 -1.9
v -1.5 0.3 -1.9
v -2 0.3 -2
v -1.9 0.3 -2
v -1.6 0.3 -2
v -1.5 0.3 -2
v -1.9 4 -1.5
v -1.6 4 -1.5
v -2 4 -1.6
v -1.9 4 -1.6
v -1.6 4 -1.6
v -1.5 4 -1.6
v -2 4 -1.9
v -1.9 4 -1.9
v -1.6 4 -1.9
v -1.5 4 -1.9
v -1.9 4 -2
v -1.6 4 -2

# faces
f 3/3/1 2/3/1 1/3/1
f 4/3/1 2/3/1 3/3/1
f 5/3/1 2/3/1 4/3/1
f 6/3/1 2/3/1 5/3/1
f 7/3/1 5/3/1 4/3/1
f 8/3/1 5/3/1 7/3/1
f 9/1/1 8/1/1 7/1/1
f 10/1/1 8/1/1 9/1/1
f 11/2/1 10/2/1 9/2/1
f 12/2/1 10/2/1 11/2/1
f 17/3/1 14/3/1 13/3/1
f 18/3/1 14/3/1 17/3/1
f 19/3/1 16/3/1 15/3/1
f 20/3/1 16/3/1 19/3/1
f 21/1/1 18/1/1 17/1/1
f 22/1/1 18/1/1 21/1/1
f 23/1/1 20/1/1 19/1/1
f 24/1/1 20/1/1 23/1/1
f 25/2/1 22/2/1 21/2/1
f 26/2/1 22/2/1 25/2/1
f 27/2/1 24/2/1 23/2/1
f 28/2/1 24/2/1 27/2/1
f 29/3/2 30/3/2 33/3/2
f 33/3/2 30/3/2 34/3/2
f 31/3/2 32/3/2 35/3/2
f 35/3/2 32/3/2 36/3/2
f 33/1/2 34/1/2 37/1/2
f 37/1/2 34/1/2 38/1/2
f 35/1/2 36/1/2 39/1/2
f 39/1/2 36/1/2 40/1/2
f 37/2/2 38/2/2 41/2/2
f 41/2/2 38/2/2 42/2/2
f 39/2/2 40/2/2 43/2/2
f 43/2/2 40/2/2 44/2/2
f 45/3/2 46/3/2 47/3/2
f 47/3/2 46/3/2 48/3/2
f 48/3/2 46/3/2 49/3/2
f 49/3/2 46/3/2 50/3/2
f 48/3/2 49/3/2 51/3/2
f 51/3/2 49/3/2 52/3/2
f 51/1/2 52/1/2 53/1/2
f 53/1/2 52/1/2 54/1/2
f 53/2/2 54/2/2 55/2/2
f 55/2/2 54/2/2 56/2/2
f 59/3/3 58/3/3 57/3/3
f 63/3/3 59/3/3 57/3/3
f 63/3/3 60/3/3 59/3/3
f 64/1/3 61/1/3 60/1/3
f 64/3/3 60/3/3 63/3/3
f 65/2/3 62/2/3 61/2/3
f 65/1/3 61/1/3 64/1/3
f 66/2/3 62/2/3 65/2/3
f 67/3/3 63/3/3 57/3/3
f 68/3/3 63/3/3 67/3/3
f 73/3/3 70/3/3 69/3/3
f 74/1/3 71/1/3 70/1/3
f 74/3/3 70/3/3 73/3/3
f 75/2/3 72/2/3 71/2/3
f 75/1/3 71/1/3 74/1/3
f 76/2/3 72/2/3 75/2/3
f 81/3/3 78/3/3 77/3/3
f 82/1/3 79/1/3 78/1/3
f 82/3/3 78/3/3 81/3/3
f 83/2/3 80/2/3 79/2/3
f 83/1/3 79/1/3 82/1/3
f 84/2/3 80/2/3 83/2/3
f 85/3/4 86/3/4 89/3/4
f 86/1/4 87/1/4 90/1/4
f 89/3/4 86/3/4 90/3/4
f 87/2/4 88/2/4 91/2/4
f 90/1/4 87/1/4 91/1/4
f 91/2/4 88/2/4 92/2/4
f 93/3/4 94/3/4 97/3/4
f 94/1/4 95/1/4 98/1/4
f 97/3/4 94/3/4 98/3/4
f 95/2/4 96/2/4 99/2/4
f 98/1/4 95/1/4 99/1/4
f 99/2/4 96/2/4 100/2/4
f 101/3/4 102/3/4 103/3/4
f 101/3/4 103/3/4 107/3/4
f 103/3/4 104/3/4 107/3/4
f 104/1/4 105/1/4 108/1/4
f 107/3/4 104/3/4 108/3/4
f 105/2/4 106/2/4 109/2/4
f 108/1/4 105/1/4 109/1/4
f 109/2/4 106/2/4 110/2/4
f 101/3/4 107/3/4 111/3/4
f 111/3/4 107/3/4 112/3/4
f 115/3/5 114/3/5 113/3/5
f 116/3/5 114/3/5 115/3/5
f 117/3/6 118/3/6 121/3/6
f 121/3/6 118/3/6 122/3/6
f 119/3/6 120/3/6 123/3/6
f 123/3/6 120/3/6 124/3/6
f 125/3/6 126/3/6 129/3/6
f 129/3/6 126/3/6 130/3/6
f 127/3/6 128/3/6 131/3/6
f 131/3/6 128/3/6 132/3/6
f 133/2/6 134/2/6 136/2/6
f 136/2/6 134/2/6 137/2/6
f 135/2/6 136/2/6 139/2/6
f 137/2/6 138/2/6 139/2/6
f 136/2/6 137/2/6 139/2/6
f 139/2/6 138/2/6 140/2/6
f 140/2/6 138/2/6 141/2/6
f 141/2/6 138/2/6 142/2/6
f 140/2/6 141/2/6 143/2/6
f 143/2/6 141/2/6 144/2/6
