# MagicaVoxel @ Ephtracy

# group
o 

# material
mtllib smalll_wood_sofa_30_60_17.mtl
usemtl palette

# normals
vn -1 0 0
vn 1 0 0
vn 0 0 1
vn 0 0 -1
vn 0 -1 0
vn 0 1 0

# texcoords
vt 0.205078 0.5
vt 0.990234 0.5

# verts
v -1.5 0.4 2.5
v -1.5 0.4 2.3
v -1.5 0.4 0.3
v -1.5 0.4 0.0999999
v -1.5 0.5 2.4
v -1.5 0.5 2.3
v -1.5 0.5 0.3
v -1.5 0.5 0.2
v -1.5 0.6 2.4
v -1.5 0.6 2.3
v -1.5 0.6 0.3
v -1.5 0.6 0.2
v -1.5 0.7 4.3
v -1.5 0.7 3.8
v -1.5 0.7 3.6
v -1.5 0.7 3.2
v -1.5 0.7 3.1
v -1.5 0.7 2.9
v -1.5 0.7 2.8
v -1.5 0.7 2.6
v -1.5 0.7 2.5
v -1.5 0.7 2.4
v -1.5 0.7 0.2
v -1.5 0.7 0.0999999
v -1.5 0.7 0
v -1.5 0.7 -0.2
v -1.5 0.7 -0.3
v -1.5 0.7 -0.5
v -1.5 0.7 -0.6
v -1.5 0.7 -1
v -1.5 0.7 -1.2
v -1.5 0.7 -1.7
v -1.5 0.8 3.8
v -1.5 0.8 3.6
v -1.5 0.8 3.2
v -1.5 0.8 3.1
v -1.5 0.8 2.9
v -1.5 0.8 2.8
v -1.5 0.8 2.6
v -1.5 0.8 2.5
v -1.5 0.8 2.3
v -1.5 0.8 0.3
v -1.5 0.8 0.0999999
v -1.5 0.8 0
v -1.5 0.8 -0.2
v -1.5 0.8 -0.3
v -1.5 0.8 -0.5
v -1.5 0.8 -0.6
v -1.5 0.8 -1
v -1.5 0.8 -1.2
v -1.5 0.9 4.3
v -1.5 0.9 3.8
v -1.5 0.9 -1.2
v -1.5 0.9 -1.7
v -1.5 1 4.3
v -1.5 1 3.8
v -1.5 1 -1.2
v -1.5 1 -1.7
v -1.5 1.1 2.3
v -1.5 1.1 0.3
v -1.5 1.2 4.3
v -1.5 1.2 3.8
v -1.5 1.2 2.3
v -1.5 1.2 0.3
v -1.5 1.2 -1.2
v -1.5 1.2 -1.7
v -1.5 1.3 4.3
v -1.5 1.3 3.9
v -1.5 1.3 3.8
v -1.5 1.3 -1.2
v -1.5 1.3 -1.3
v -1.5 1.3 -1.7
v -1.5 1.5 4
v -1.5 1.5 3.9
v -1.5 1.5 -1.3
v -1.5 1.5 -1.4
v -1.5 1.6 4.1
v -1.5 1.6 4
v -1.5 1.6 -1.4
v -1.5 1.6 -1.5
v -1.5 1.7 4.3
v -1.5 1.7 4.1
v -1.5 1.7 -1.5
v -1.5 1.7 -1.7
v -1.4 0 4.3
v -1.4 0 2.5
v -1.4 0 0.0999999
v -1.4 0 -1.7
v -1.4 0.4 2.5
v -1.4 0.4 0.0999999
v -1.4 0.7 4.3
v -1.4 0.7 3.8
v -1.4 0.7 3.6
v -1.4 0.7 3.2
v -1.4 0.7 3.1
v -1.4 0.7 2.9
v -1.4 0.7 2.8
v -1.4 0.7 2.6
v -1.4 0.7 2.5
v -1.4 0.7 0.0999999
v -1.4 0.7 0
v -1.4 0.7 -0.2
v -1.4 0.7 -0.3
v -1.4 0.7 -0.5
v -1.4 0.7 -0.6
v -1.4 0.7 -1
v -1.4 0.7 -1.2
v -1.4 0.7 -1.7
v -1.4 0.8 2.3
v -1.4 0.8 0.3
v -1.4 1 2.3
v -1.4 1 0.3
v -1.2 1 2.3
v -1.2 1 0.3
v -1.2 1.1 2.3
v -1.2 1.1 0.3
v 1.4 0 4.3
v 1.4 0 2.5
v 1.4 0 0.0999999
v 1.4 0 -1.7
v 1.4 0.4 2.5
v 1.4 0.4 0.0999999
v 1.4 0.7 4.3
v 1.4 0.7 3.8
v 1.4 0.7 3.6
v 1.4 0.7 3.2
v 1.4 0.7 3.1
v 1.4 0.7 2.9
v 1.4 0.7 2.8
v 1.4 0.7 2.6
v 1.4 0.7 2.5
v 1.4 0.7 0.0999999
v 1.4 0.7 0
v 1.4 0.7 -0.2
v 1.4 0.7 -0.3
v 1.4 0.7 -0.5
v 1.4 0.7 -0.6
v 1.4 0.7 -1
v 1.4 0.7 -1.2
v 1.4 0.7 -1.7
v 1.5 0.4 2.5
v 1.5 0.4 2.3
v 1.5 0.4 0.3
v 1.5 0.4 0.0999999
v 1.5 0.5 2.4
v 1.5 0.5 2.3
v 1.5 0.5 0.3
v 1.5 0.5 0.2
v 1.5 0.6 2.4
v 1.5 0.6 2.3
v 1.5 0.6 0.3
v 1.5 0.6 0.2
v 1.5 0.7 4.3
v 1.5 0.7 3.8
v 1.5 0.7 3.6
v 1.5 0.7 3.2
v 1.5 0.7 3.1
v 1.5 0.7 2.9
v 1.5 0.7 2.8
v 1.5 0.7 2.6
v 1.5 0.7 2.5
v 1.5 0.7 2.4
v 1.5 0.7 0.2
v 1.5 0.7 0.0999999
v 1.5 0.7 0
v 1.5 0.7 -0.2
v 1.5 0.7 -0.3
v 1.5 0.7 -0.5
v 1.5 0.7 -0.6
v 1.5 0.7 -1
v 1.5 0.7 -1.2
v 1.5 0.7 -1.7
v 1.5 0.8 3.8
v 1.5 0.8 3.6
v 1.5 0.8 3.2
v 1.5 0.8 3.1
v 1.5 0.8 2.9
v 1.5 0.8 2.8
v 1.5 0.8 2.6
v 1.5 0.8 2.5
v 1.5 0.8 0.0999999
v 1.5 0.8 0
v 1.5 0.8 -0.2
v 1.5 0.8 -0.3
v 1.5 0.8 -0.5
v 1.5 0.8 -0.6
v 1.5 0.8 -1
v 1.5 0.8 -1.2
v 1.5 0.9 4.3
v 1.5 0.9 3.8
v 1.5 0.9 -1.2
v 1.5 0.9 -1.7
v 1.5 1 4.3
v 1.5 1 3.8
v 1.5 1 -1.2
v 1.5 1 -1.7
v 1.5 1.1 2.3
v 1.5 1.1 0.3
v 1.5 1.2 4.3
v 1.5 1.2 3.8
v 1.5 1.2 2.3
v 1.5 1.2 0.3
v 1.5 1.2 -1.2
v 1.5 1.2 -1.7
v 1.5 1.3 4.3
v 1.5 1.3 3.9
v 1.5 1.3 3.8
v 1.5 1.3 -1.2
v 1.5 1.3 -1.3
v 1.5 1.3 -1.7
v 1.5 1.5 4
v 1.5 1.5 3.9
v 1.5 1.5 -1.3
v 1.5 1.5 -1.4
v 1.5 1.6 4.1
v 1.5 1.6 4
v 1.5 1.6 -1.4
v 1.5 1.6 -1.5
v 1.5 1.7 4.3
v 1.5 1.7 4.1
v 1.5 1.7 -1.5
v 1.5 1.7 -1.7
v -1.5 0.7 4.3
v -1.5 0.9 4.3
v -1.5 1 4.3
v -1.5 1.2 4.3
v -1.5 1.3 4.3
v -1.5 1.7 4.3
v -1.4 0 4.3
v -1.4 0.7 4.3
v 1.4 0 4.3
v 1.4 0.7 4.3
v 1.5 0.7 4.3
v 1.5 0.9 4.3
v 1.5 1 4.3
v 1.5 1.2 4.3
v 1.5 1.3 4.3
v 1.5 1.7 4.3
v -1.5 0.4 2.5
v -1.5 0.7 2.5
v -1.4 0.4 2.5
v -1.4 0.7 2.5
v 1.4 0.4 2.5
v 1.4 0.7 2.5
v 1.5 0.4 2.5
v 1.5 0.7 2.5
v -1.5 0.8 2.3
v -1.5 1.1 2.3
v -1.5 1.2 2.3
v -1.4 0.8 2.3
v -1.4 1 2.3
v -1.2 1 2.3
v -1.2 1.1 2.3
v 1.5 1.1 2.3
v 1.5 1.2 2.3
v -1.5 0.4 0.3
v -1.5 0.5 0.3
v -1.5 0.6 0.3
v 1.5 0.4 0.3
v 1.5 0.5 0.3
v 1.5 0.6 0.3
v -1.5 0.6 0.2
v -1.5 0.7 0.2
v 1.5 0.6 0.2
v 1.5 0.7 0.2
v -1.5 0.7 0.0999999
v -1.5 0.8 0.0999999
v -1.4 0 0.0999999
v -1.4 0.4 0.0999999
v 1.4 0 0.0999999
v 1.4 0.4 0.0999999
v 1.5 0.7 0.0999999
v 1.5 0.8 0.0999999
v -1.5 0.8 -1.2
v -1.5 0.9 -1.2
v -1.5 1 -1.2
v -1.5 1.2 -1.2
v -1.5 1.3 -1.2
v 1.5 0.8 -1.2
v 1.5 0.9 -1.2
v 1.5 1 -1.2
v 1.5 1.2 -1.2
v 1.5 1.3 -1.2
v -1.5 1.3 -1.3
v -1.5 1.5 -1.3
v 1.5 1.3 -1.3
v 1.5 1.5 -1.3
v -1.5 1.5 -1.4
v -1.5 1.6 -1.4
v 1.5 1.5 -1.4
v 1.5 1.6 -1.4
v -1.5 1.6 -1.5
v -1.5 1.7 -1.5
v 1.5 1.6 -1.5
v 1.5 1.7 -1.5
v -1.5 1.6 4.1
v -1.5 1.7 4.1
v 1.5 1.6 4.1
v 1.5 1.7 4.1
v -1.5 1.5 4
v -1.5 1.6 4
v 1.5 1.5 4
v 1.5 1.6 4
v -1.5 1.3 3.9
v -1.5 1.5 3.9
v 1.5 1.3 3.9
v 1.5 1.5 3.9
v -1.5 0.8 3.8
v -1.5 0.9 3.8
v -1.5 1 3.8
v -1.5 1.2 3.8
v -1.5 1.3 3.8
v 1.5 0.8 3.8
v 1.5 0.9 3.8
v 1.5 1 3.8
v 1.5 1.2 3.8
v 1.5 1.3 3.8
v -1.5 0.7 2.5
v -1.5 0.8 2.5
v -1.4 0 2.5
v -1.4 0.4 2.5
v 1.4 0 2.5
v 1.4 0.4 2.5
v 1.5 0.7 2.5
v 1.5 0.8 2.5
v -1.5 0.6 2.4
v -1.5 0.7 2.4
v 1.5 0.6 2.4
v 1.5 0.7 2.4
v -1.5 0.4 2.3
v -1.5 0.5 2.3
v -1.5 0.6 2.3
v 1.5 0.4 2.3
v 1.5 0.5 2.3
v 1.5 0.6 2.3
v -1.5 0.8 0.3
v -1.5 1.1 0.3
v -1.5 1.2 0.3
v -1.4 0.8 0.3
v -1.4 1 0.3
v -1.2 1 0.3
v -1.2 1.1 0.3
v 1.5 1.1 0.3
v 1.5 1.2 0.3
v -1.5 0.4 0.0999999
v -1.5 0.7 0.0999999
v -1.4 0.4 0.0999999
v -1.4 0.7 0.0999999
v 1.4 0.4 0.0999999
v 1.4 0.7 0.0999999
v 1.5 0.4 0.0999999
v 1.5 0.7 0.0999999
v -1.5 0.7 -1.7
v -1.5 0.9 -1.7
v -1.5 1 -1.7
v -1.5 1.2 -1.7
v -1.5 1.3 -1.7
v -1.5 1.7 -1.7
v -1.4 0 -1.7
v -1.4 0.7 -1.7
v 1.4 0 -1.7
v 1.4 0.7 -1.7
v 1.5 0.7 -1.7
v 1.5 0.9 -1.7
v 1.5 1 -1.7
v 1.5 1.2 -1.7
v 1.5 1.3 -1.7
v 1.5 1.7 -1.7
v -1.4 0 4.3
v 1.4 0 4.3
v -1.4 0 2.5
v 1.4 0 2.5
v -1.4 0 0.0999999
v 1.4 0 0.0999999
v -1.4 0 -1.7
v 1.4 0 -1.7
v -1.5 0.4 2.5
v -1.4 0.4 2.5
v 1.4 0.4 2.5
v 1.5 0.4 2.5
v -1.5 0.4 2.3
v 1.5 0.4 2.3
v -1.5 0.4 0.3
v 1.5 0.4 0.3
v -1.5 0.4 0.0999999
v -1.4 0.4 0.0999999
v 1.4 0.4 0.0999999
v 1.5 0.4 0.0999999
v -1.5 0.7 4.3
v -1.4 0.7 4.3
v 1.4 0.7 4.3
v 1.5 0.7 4.3
v -1.5 0.7 3.8
v -1.4 0.7 3.8
v 1.4 0.7 3.8
v 1.5 0.7 3.8
v -1.5 0.7 3.6
v -1.4 0.7 3.6
v 1.4 0.7 3.6
v 1.5 0.7 3.6
v -1.5 0.7 3.2
v -1.4 0.7 3.2
v 1.4 0.7 3.2
v 1.5 0.7 3.2
v -1.5 0.7 3.1
v -1.4 0.7 3.1
v 1.4 0.7 3.1
v 1.5 0.7 3.1
v -1.5 0.7 2.9
v -1.4 0.7 2.9
v 1.4 0.7 2.9
v 1.5 0.7 2.9
v -1.5 0.7 2.8
v -1.4 0.7 2.8
v 1.4 0.7 2.8
v 1.5 0.7 2.8
v -1.5 0.7 2.6
v -1.4 0.7 2.6
v 1.4 0.7 2.6
v 1.5 0.7 2.6
v -1.5 0.7 2.5
v -1.4 0.7 2.5
v 1.4 0.7 2.5
v 1.5 0.7 2.5
v -1.5 0.7 0.0999999
v -1.4 0.7 0.0999999
v 1.4 0.7 0.0999999
v 1.5 0.7 0.0999999
v -1.5 0.7 0
v -1.4 0.7 0
v 1.4 0.7 0
v 1.5 0.7 0
v -1.5 0.7 -0.2
v -1.4 0.7 -0.2
v 1.4 0.7 -0.2
v 1.5 0.7 -0.2
v -1.5 0.7 -0.3
v -1.4 0.7 -0.3
v 1.4 0.7 -0.3
v 1.5 0.7 -0.3
v -1.5 0.7 -0.5
v -1.4 0.7 -0.5
v 1.4 0.7 -0.5
v 1.5 0.7 -0.5
v -1.5 0.7 -0.6
v -1.4 0.7 -0.6
v 1.4 0.7 -0.6
v 1.5 0.7 -0.6
v -1.5 0.7 -1
v -1.4 0.7 -1
v 1.4 0.7 -1
v 1.5 0.7 -1
v -1.5 0.7 -1.2
v -1.4 0.7 -1.2
v 1.4 0.7 -1.2
v 1.5 0.7 -1.2
v -1.5 0.7 -1.7
v -1.4 0.7 -1.7
v 1.4 0.7 -1.7
v 1.5 0.7 -1.7
v -1.5 0.8 2.3
v -1.4 0.8 2.3
v -1.5 0.8 0.3
v -1.4 0.8 0.3
v -1.4 1 2.3
v -1.2 1 2.3
v -1.4 1 0.3
v -1.2 1 0.3
v -1.2 1.1 2.3
v 1.5 1.1 2.3
v -1.2 1.1 0.3
v 1.5 1.1 0.3
v -1.5 0.6 2.4
v 1.5 0.6 2.4
v -1.5 0.6 2.3
v 1.5 0.6 2.3
v -1.5 0.6 0.3
v 1.5 0.6 0.3
v -1.5 0.6 0.2
v 1.5 0.6 0.2
v -1.5 0.7 2.5
v 1.5 0.7 2.5
v -1.5 0.7 2.4
v 1.5 0.7 2.4
v -1.5 0.7 0.2
v 1.5 0.7 0.2
v -1.5 0.7 0.0999999
v 1.5 0.7 0.0999999
v -1.5 0.8 3.8
v 1.5 0.8 3.8
v -1.5 0.8 3.6
v 1.5 0.8 3.6
v -1.5 0.8 3.2
v 1.5 0.8 3.2
v -1.5 0.8 3.1
v 1.5 0.8 3.1
v -1.5 0.8 2.9
v 1.5 0.8 2.9
v -1.5 0.8 2.8
v 1.5 0.8 2.8
v -1.5 0.8 2.6
v 1.5 0.8 2.6
v -1.5 0.8 2.5
v 1.5 0.8 2.5
v -1.5 0.8 0.0999999
v 1.5 0.8 0.0999999
v -1.5 0.8 0
v 1.5 0.8 0
v -1.5 0.8 -0.2
v 1.5 0.8 -0.2
v -1.5 0.8 -0.3
v 1.5 0.8 -0.3
v -1.5 0.8 -0.5
v 1.5 0.8 -0.5
v -1.5 0.8 -0.6
v 1.5 0.8 -0.6
v -1.5 0.8 -1
v 1.5 0.8 -1
v -1.5 0.8 -1.2
v 1.5 0.8 -1.2
v -1.5 1.2 2.3
v 1.5 1.2 2.3
v -1.5 1.2 0.3
v 1.5 1.2 0.3
v -1.5 1.3 3.9
v 1.5 1.3 3.9
v -1.5 1.3 3.8
v 1.5 1.3 3.8
v -1.5 1.3 -1.2
v 1.5 1.3 -1.2
v -1.5 1.3 -1.3
v 1.5 1.3 -1.3
v -1.5 1.5 4
v 1.5 1.5 4
v -1.5 1.5 3.9
v 1.5 1.5 3.9
v -1.5 1.5 -1.3
v 1.5 1.5 -1.3
v -1.5 1.5 -1.4
v 1.5 1.5 -1.4
v -1.5 1.6 4.1
v 1.5 1.6 4.1
v -1.5 1.6 4
v 1.5 1.6 4
v -1.5 1.6 -1.4
v 1.5 1.6 -1.4
v -1.5 1.6 -1.5
v 1.5 1.6 -1.5
v -1.5 1.7 4.3
v 1.5 1.7 4.3
v -1.5 1.7 4.1
v 1.5 1.7 4.1
v -1.5 1.7 -1.5
v 1.5 1.7 -1.5
v -1.5 1.7 -1.7
v 1.5 1.7 -1.7

# faces
f 5/1/1 2/1/1 1/1/1
f 6/1/1 2/1/1 5/1/1
f 7/1/1 4/1/1 3/1/1
f 8/1/1 4/1/1 7/1/1
f 9/2/1 6/2/1 5/2/1
f 9/1/1 5/1/1 1/1/1
f 10/2/1 6/2/1 9/2/1
f 11/2/1 8/2/1 7/2/1
f 12/1/1 4/1/1 8/1/1
f 12/2/1 8/2/1 11/2/1
f 21/1/1 9/1/1 1/1/1
f 22/1/1 9/1/1 21/1/1
f 23/1/1 4/1/1 12/1/1
f 24/1/1 4/1/1 23/1/1
f 33/1/1 14/1/1 13/1/1
f 33/2/1 15/2/1 14/2/1
f 34/1/1 16/1/1 15/1/1
f 34/2/1 15/2/1 33/2/1
f 35/2/1 17/2/1 16/2/1
f 35/1/1 16/1/1 34/1/1
f 36/1/1 18/1/1 17/1/1
f 36/2/1 17/2/1 35/2/1
f 37/2/1 19/2/1 18/2/1
f 37/1/1 18/1/1 36/1/1
f 38/1/1 20/1/1 19/1/1
f 38/2/1 19/2/1 37/2/1
f 39/2/1 21/2/1 20/2/1
f 39/1/1 20/1/1 38/1/1
f 40/2/1 21/2/1 39/2/1
f 43/2/1 25/2/1 24/2/1
f 44/1/1 26/1/1 25/1/1
f 44/2/1 25/2/1 43/2/1
f 45/2/1 27/2/1 26/2/1
f 45/1/1 26/1/1 44/1/1
f 46/1/1 28/1/1 27/1/1
f 46/2/1 27/2/1 45/2/1
f 47/2/1 29/2/1 28/2/1
f 47/1/1 28/1/1 46/1/1
f 48/1/1 30/1/1 29/1/1
f 48/2/1 29/2/1 47/2/1
f 49/2/1 31/2/1 30/2/1
f 49/1/1 30/1/1 48/1/1
f 50/1/1 32/1/1 31/1/1
f 50/2/1 31/2/1 49/2/1
f 51/1/1 33/1/1 13/1/1
f 52/1/1 33/1/1 51/1/1
f 53/1/1 32/1/1 50/1/1
f 54/1/1 32/1/1 53/1/1
f 55/2/1 52/2/1 51/2/1
f 56/2/1 52/2/1 55/2/1
f 57/2/1 54/2/1 53/2/1
f 58/2/1 54/2/1 57/2/1
f 59/2/1 42/2/1 41/2/1
f 60/2/1 42/2/1 59/2/1
f 61/1/1 56/1/1 55/1/1
f 62/1/1 56/1/1 61/1/1
f 63/1/1 60/1/1 59/1/1
f 64/1/1 60/1/1 63/1/1
f 65/1/1 58/1/1 57/1/1
f 66/1/1 58/1/1 65/1/1
f 67/2/1 62/2/1 61/2/1
f 68/2/1 62/2/1 67/2/1
f 69/2/1 62/2/1 68/2/1
f 70/2/1 66/2/1 65/2/1
f 71/2/1 66/2/1 70/2/1
f 72/2/1 66/2/1 71/2/1
f 73/1/1 68/1/1 67/1/1
f 74/1/1 68/1/1 73/1/1
f 75/1/1 72/1/1 71/1/1
f 76/1/1 72/1/1 75/1/1
f 77/1/1 73/1/1 67/1/1
f 78/1/1 73/1/1 77/1/1
f 79/1/1 72/1/1 76/1/1
f 80/1/1 72/1/1 79/1/1
f 81/1/1 77/1/1 67/1/1
f 82/1/1 77/1/1 81/1/1
f 83/1/1 72/1/1 80/1/1
f 84/1/1 72/1/1 83/1/1
f 89/1/1 86/1/1 85/1/1
f 90/1/1 88/1/1 87/1/1
f 91/1/1 89/1/1 85/1/1
f 92/1/1 89/1/1 91/1/1
f 93/1/1 89/1/1 92/1/1
f 94/1/1 89/1/1 93/1/1
f 95/1/1 89/1/1 94/1/1
f 96/1/1 89/1/1 95/1/1
f 97/1/1 89/1/1 96/1/1
f 98/1/1 89/1/1 97/1/1
f 99/1/1 89/1/1 98/1/1
f 100/1/1 88/1/1 90/1/1
f 101/1/1 88/1/1 100/1/1
f 102/1/1 88/1/1 101/1/1
f 103/1/1 88/1/1 102/1/1
f 104/1/1 88/1/1 103/1/1
f 105/1/1 88/1/1 104/1/1
f 106/1/1 88/1/1 105/1/1
f 107/1/1 88/1/1 106/1/1
f 108/1/1 88/1/1 107/1/1
f 109/2/2 110/2/2 111/2/2
f 111/2/2 110/2/2 112/2/2
f 113/2/2 114/2/2 115/2/2
f 115/2/2 114/2/2 116/2/2
f 117/1/2 118/1/2 121/1/2
f 119/1/2 120/1/2 122/1/2
f 117/1/2 121/1/2 123/1/2
f 123/1/2 121/1/2 124/1/2
f 124/1/2 121/1/2 125/1/2
f 125/1/2 121/1/2 126/1/2
f 126/1/2 121/1/2 127/1/2
f 127/1/2 121/1/2 128/1/2
f 128/1/2 121/1/2 129/1/2
f 129/1/2 121/1/2 130/1/2
f 130/1/2 121/1/2 131/1/2
f 122/1/2 120/1/2 132/1/2
f 132/1/2 120/1/2 133/1/2
f 133/1/2 120/1/2 134/1/2
f 134/1/2 120/1/2 135/1/2
f 135/1/2 120/1/2 136/1/2
f 136/1/2 120/1/2 137/1/2
f 137/1/2 120/1/2 138/1/2
f 138/1/2 120/1/2 139/1/2
f 139/1/2 120/1/2 140/1/2
f 141/1/2 142/1/2 145/1/2
f 145/1/2 142/1/2 146/1/2
f 143/1/2 144/1/2 147/1/2
f 147/1/2 144/1/2 148/1/2
f 145/2/2 146/2/2 149/2/2
f 141/1/2 145/1/2 149/1/2
f 149/2/2 146/2/2 150/2/2
f 147/2/2 148/2/2 151/2/2
f 148/1/2 144/1/2 152/1/2
f 151/2/2 148/2/2 152/2/2
f 141/1/2 149/1/2 161/1/2
f 161/1/2 149/1/2 162/1/2
f 152/1/2 144/1/2 163/1/2
f 163/1/2 144/1/2 164/1/2
f 153/1/2 154/1/2 173/1/2
f 154/2/2 155/2/2 173/2/2
f 155/1/2 156/1/2 174/1/2
f 173/2/2 155/2/2 174/2/2
f 156/2/2 157/2/2 175/2/2
f 174/1/2 156/1/2 175/1/2
f 157/1/2 158/1/2 176/1/2
f 175/2/2 157/2/2 176/2/2
f 158/2/2 159/2/2 177/2/2
f 176/1/2 158/1/2 177/1/2
f 159/1/2 160/1/2 178/1/2
f 177/2/2 159/2/2 178/2/2
f 160/2/2 161/2/2 179/2/2
f 178/1/2 160/1/2 179/1/2
f 179/2/2 161/2/2 180/2/2
f 164/2/2 165/2/2 181/2/2
f 165/1/2 166/1/2 182/1/2
f 181/2/2 165/2/2 182/2/2
f 166/2/2 167/2/2 183/2/2
f 182/1/2 166/1/2 183/1/2
f 167/1/2 168/1/2 184/1/2
f 183/2/2 167/2/2 184/2/2
f 168/2/2 169/2/2 185/2/2
f 184/1/2 168/1/2 185/1/2
f 169/1/2 170/1/2 186/1/2
f 185/2/2 169/2/2 186/2/2
f 170/2/2 171/2/2 187/2/2
f 186/1/2 170/1/2 187/1/2
f 171/1/2 172/1/2 188/1/2
f 187/2/2 171/2/2 188/2/2
f 153/1/2 173/1/2 189/1/2
f 189/1/2 173/1/2 190/1/2
f 188/1/2 172/1/2 191/1/2
f 191/1/2 172/1/2 192/1/2
f 189/2/2 190/2/2 193/2/2
f 193/2/2 190/2/2 194/2/2
f 191/2/2 192/2/2 195/2/2
f 195/2/2 192/2/2 196/2/2
f 193/1/2 194/1/2 199/1/2
f 199/1/2 194/1/2 200/1/2
f 197/1/2 198/1/2 201/1/2
f 201/1/2 198/1/2 202/1/2
f 195/1/2 196/1/2 203/1/2
f 203/1/2 196/1/2 204/1/2
f 199/2/2 200/2/2 205/2/2
f 205/2/2 200/2/2 206/2/2
f 206/2/2 200/2/2 207/2/2
f 203/2/2 204/2/2 208/2/2
f 208/2/2 204/2/2 209/2/2
f 209/2/2 204/2/2 210/2/2
f 205/1/2 206/1/2 211/1/2
f 211/1/2 206/1/2 212/1/2
f 209/1/2 210/1/2 213/1/2
f 213/1/2 210/1/2 214/1/2
f 205/1/2 211/1/2 215/1/2
f 215/1/2 211/1/2 216/1/2
f 214/1/2 210/1/2 217/1/2
f 217/1/2 210/1/2 218/1/2
f 205/1/2 215/1/2 219/1/2
f 219/1/2 215/1/2 220/1/2
f 218/1/2 210/1/2 221/1/2
f 221/1/2 210/1/2 222/1/2
f 230/1/3 224/1/3 223/1/3
f 231/1/3 230/1/3 229/1/3
f 232/1/3 224/1/3 230/1/3
f 232/1/3 230/1/3 231/1/3
f 233/1/3 224/1/3 232/1/3
f 234/2/3 225/2/3 224/2/3
f 234/1/3 224/1/3 233/1/3
f 235/1/3 226/1/3 225/1/3
f 235/2/3 225/2/3 234/2/3
f 236/2/3 227/2/3 226/2/3
f 236/1/3 226/1/3 235/1/3
f 237/1/3 228/1/3 227/1/3
f 237/2/3 227/2/3 236/2/3
f 238/1/3 228/1/3 237/1/3
f 241/1/3 240/1/3 239/1/3
f 242/1/3 240/1/3 241/1/3
f 245/1/3 244/1/3 243/1/3
f 246/1/3 244/1/3 245/1/3
f 250/2/3 248/2/3 247/2/3
f 251/2/3 248/2/3 250/2/3
f 252/2/3 248/2/3 251/2/3
f 253/1/3 249/1/3 248/1/3
f 253/2/3 248/2/3 252/2/3
f 254/1/3 249/1/3 253/1/3
f 255/1/3 249/1/3 254/1/3
f 259/1/3 257/1/3 256/1/3
f 260/2/3 258/2/3 257/2/3
f 260/1/3 257/1/3 259/1/3
f 261/2/3 258/2/3 260/2/3
f 264/1/3 263/1/3 262/1/3
f 265/1/3 263/1/3 264/1/3
f 270/1/3 269/1/3 268/1/3
f 271/1/3 269/1/3 270/1/3
f 272/2/3 267/2/3 266/2/3
f 273/2/3 267/2/3 272/2/3
f 279/1/3 275/1/3 274/1/3
f 280/2/3 276/2/3 275/2/3
f 280/1/3 275/1/3 279/1/3
f 281/1/3 277/1/3 276/1/3
f 281/2/3 276/2/3 280/2/3
f 282/2/3 278/2/3 277/2/3
f 282/1/3 277/1/3 281/1/3
f 283/2/3 278/2/3 282/2/3
f 286/1/3 285/1/3 284/1/3
f 287/1/3 285/1/3 286/1/3
f 290/1/3 289/1/3 288/1/3
f 291/1/3 289/1/3 290/1/3
f 294/1/3 293/1/3 292/1/3
f 295/1/3 293/1/3 294/1/3
f 296/1/4 297/1/4 298/1/4
f 298/1/4 297/1/4 299/1/4
f 300/1/4 301/1/4 302/1/4
f 302/1/4 301/1/4 303/1/4
f 304/1/4 305/1/4 306/1/4
f 306/1/4 305/1/4 307/1/4
f 308/1/4 309/1/4 313/1/4
f 309/2/4 310/2/4 314/2/4
f 313/1/4 309/1/4 314/1/4
f 310/1/4 311/1/4 315/1/4
f 314/2/4 310/2/4 315/2/4
f 311/2/4 312/2/4 316/2/4
f 315/1/4 311/1/4 316/1/4
f 316/2/4 312/2/4 317/2/4
f 320/1/4 321/1/4 322/1/4
f 322/1/4 321/1/4 323/1/4
f 318/2/4 319/2/4 324/2/4
f 324/2/4 319/2/4 325/2/4
f 326/1/4 327/1/4 328/1/4
f 328/1/4 327/1/4 329/1/4
f 330/1/4 331/1/4 333/1/4
f 331/2/4 332/2/4 334/2/4
f 333/1/4 331/1/4 334/1/4
f 334/2/4 332/2/4 335/2/4
f 336/2/4 337/2/4 339/2/4
f 339/2/4 337/2/4 340/2/4
f 340/2/4 337/2/4 341/2/4
f 337/1/4 338/1/4 342/1/4
f 341/2/4 337/2/4 342/2/4
f 342/1/4 338/1/4 343/1/4
f 343/1/4 338/1/4 344/1/4
f 345/1/4 346/1/4 347/1/4
f 347/1/4 346/1/4 348/1/4
f 349/1/4 350/1/4 351/1/4
f 351/1/4 350/1/4 352/1/4
f 353/1/4 354/1/4 360/1/4
f 359/1/4 360/1/4 361/1/4
f 360/1/4 354/1/4 362/1/4
f 361/1/4 360/1/4 362/1/4
f 362/1/4 354/1/4 363/1/4
f 354/2/4 355/2/4 364/2/4
f 363/1/4 354/1/4 364/1/4
f 355/1/4 356/1/4 365/1/4
f 364/2/4 355/2/4 365/2/4
f 356/2/4 357/2/4 366/2/4
f 365/1/4 356/1/4 366/1/4
f 357/1/4 358/1/4 367/1/4
f 366/2/4 357/2/4 367/2/4
f 367/1/4 358/1/4 368/1/4
f 371/1/5 370/1/5 369/1/5
f 372/1/5 370/1/5 371/1/5
f 375/1/5 374/1/5 373/1/5
f 376/1/5 374/1/5 375/1/5
f 381/1/5 378/1/5 377/1/5
f 381/1/5 380/1/5 379/1/5
f 381/1/5 379/1/5 378/1/5
f 382/1/5 380/1/5 381/1/5
f 385/1/5 384/1/5 383/1/5
f 386/1/5 384/1/5 385/1/5
f 387/1/5 384/1/5 386/1/5
f 388/1/5 384/1/5 387/1/5
f 393/1/5 390/1/5 389/1/5
f 394/1/5 390/1/5 393/1/5
f 395/1/5 392/1/5 391/1/5
f 396/1/5 392/1/5 395/1/5
f 397/2/5 394/2/5 393/2/5
f 398/2/5 394/2/5 397/2/5
f 399/2/5 396/2/5 395/2/5
f 400/2/5 396/2/5 399/2/5
f 401/1/5 398/1/5 397/1/5
f 402/1/5 398/1/5 401/1/5
f 403/1/5 400/1/5 399/1/5
f 404/1/5 400/1/5 403/1/5
f 405/2/5 402/2/5 401/2/5
f 406/2/5 402/2/5 405/2/5
f 407/2/5 404/2/5 403/2/5
f 408/2/5 404/2/5 407/2/5
f 409/1/5 406/1/5 405/1/5
f 410/1/5 406/1/5 409/1/5
f 411/1/5 408/1/5 407/1/5
f 412/1/5 408/1/5 411/1/5
f 413/2/5 410/2/5 409/2/5
f 414/2/5 410/2/5 413/2/5
f 415/2/5 412/2/5 411/2/5
f 416/2/5 412/2/5 415/2/5
f 417/1/5 414/1/5 413/1/5
f 418/1/5 414/1/5 417/1/5
f 419/1/5 416/1/5 415/1/5
f 420/1/5 416/1/5 419/1/5
f 421/2/5 418/2/5 417/2/5
f 422/2/5 418/2/5 421/2/5
f 423/2/5 420/2/5 419/2/5
f 424/2/5 420/2/5 423/2/5
f 429/2/5 426/2/5 425/2/5
f 430/2/5 426/2/5 429/2/5
f 431/2/5 428/2/5 427/2/5
f 432/2/5 428/2/5 431/2/5
f 433/1/5 430/1/5 429/1/5
f 434/1/5 430/1/5 433/1/5
f 435/1/5 432/1/5 431/1/5
f 436/1/5 432/1/5 435/1/5
f 437/2/5 434/2/5 433/2/5
f 438/2/5 434/2/5 437/2/5
f 439/2/5 436/2/5 435/2/5
f 440/2/5 436/2/5 439/2/5
f 441/1/5 438/1/5 437/1/5
f 442/1/5 438/1/5 441/1/5
f 443/1/5 440/1/5 439/1/5
f 444/1/5 440/1/5 443/1/5
f 445/2/5 442/2/5 441/2/5
f 446/2/5 442/2/5 445/2/5
f 447/2/5 444/2/5 443/2/5
f 448/2/5 444/2/5 447/2/5
f 449/1/5 446/1/5 445/1/5
f 450/1/5 446/1/5 449/1/5
f 451/1/5 448/1/5 447/1/5
f 452/1/5 448/1/5 451/1/5
f 453/2/5 450/2/5 449/2/5
f 454/2/5 450/2/5 453/2/5
f 455/2/5 452/2/5 451/2/5
f 456/2/5 452/2/5 455/2/5
f 457/1/5 454/1/5 453/1/5
f 458/1/5 454/1/5 457/1/5
f 459/1/5 456/1/5 455/1/5
f 460/1/5 456/1/5 459/1/5
f 463/2/5 462/2/5 461/2/5
f 464/2/5 462/2/5 463/2/5
f 467/2/5 466/2/5 465/2/5
f 468/2/5 466/2/5 467/2/5
f 471/1/5 470/1/5 469/1/5
f 472/1/5 470/1/5 471/1/5
f 473/2/6 474/2/6 475/2/6
f 475/2/6 474/2/6 476/2/6
f 477/2/6 478/2/6 479/2/6
f 479/2/6 478/2/6 480/2/6
f 481/1/6 482/1/6 483/1/6
f 483/1/6 482/1/6 484/1/6
f 485/1/6 486/1/6 487/1/6
f 487/1/6 486/1/6 488/1/6
f 489/2/6 490/2/6 491/2/6
f 491/2/6 490/2/6 492/2/6
f 491/1/6 492/1/6 493/1/6
f 493/1/6 492/1/6 494/1/6
f 493/2/6 494/2/6 495/2/6
f 495/2/6 494/2/6 496/2/6
f 495/1/6 496/1/6 497/1/6
f 497/1/6 496/1/6 498/1/6
f 497/2/6 498/2/6 499/2/6
f 499/2/6 498/2/6 500/2/6
f 499/1/6 500/1/6 501/1/6
f 501/1/6 500/1/6 502/1/6
f 501/2/6 502/2/6 503/2/6
f 503/2/6 502/2/6 504/2/6
f 505/2/6 506/2/6 507/2/6
f 507/2/6 506/2/6 508/2/6
f 507/1/6 508/1/6 509/1/6
f 509/1/6 508/1/6 510/1/6
f 509/2/6 510/2/6 511/2/6
f 511/2/6 510/2/6 512/2/6
f 511/1/6 512/1/6 513/1/6
f 513/1/6 512/1/6 514/1/6
f 513/2/6 514/2/6 515/2/6
f 515/2/6 514/2/6 516/2/6
f 515/1/6 516/1/6 517/1/6
f 517/1/6 516/1/6 518/1/6
f 517/2/6 518/2/6 519/2/6
f 519/2/6 518/2/6 520/2/6
f 521/1/6 522/1/6 523/1/6
f 523/1/6 522/1/6 524/1/6
f 525/2/6 526/2/6 527/2/6
f 527/2/6 526/2/6 528/2/6
f 529/2/6 530/2/6 531/2/6
f 531/2/6 530/2/6 532/2/6
f 533/1/6 534/1/6 535/1/6
f 535/1/6 534/1/6 536/1/6
f 537/1/6 538/1/6 539/1/6
f 539/1/6 538/1/6 540/1/6
f 541/1/6 542/1/6 543/1/6
f 543/1/6 542/1/6 544/1/6
f 545/1/6 546/1/6 547/1/6
f 547/1/6 546/1/6 548/1/6
f 549/1/6 550/1/6 551/1/6
f 551/1/6 550/1/6 552/1/6
f 553/1/6 554/1/6 555/1/6
f 555/1/6 554/1/6 556/1/6
